<svg width="140" height="143" viewBox="0 0 140 143" fill="none" xmlns="http://www.w3.org/2000/svg">
<path d="M5.74499 48.7243C3.80142 49.0758 1.88643 49.5151 2.01025e-05 50.0423L0.00076166 98.6489C0.000785336 100.201 0.601032 101.694 1.65858 102.807C2.91616 100.669 4.25949 98.5901 5.74572 96.5989L5.74499 48.7243Z" fill="#F65700"/>
<path d="M8.78261 101.758C7.63914 103.397 6.61003 105.096 5.6095 106.853L39.1437 141.197C40.2015 142.28 41.6881 142.924 43.2032 142.924C42.6028 140.494 42.1454 138.064 41.8023 135.604L8.78261 101.758Z" fill="#F65700"/>
<path d="M91.9877 5.91409C91.6446 3.92375 91.2158 1.96268 90.7011 0.0308895L43.2158 0.0330209C41.7006 0.0330889 40.2426 0.647824 39.1563 1.73086C41.2433 3.01864 43.2731 4.39424 45.2171 5.91619L91.9877 5.91409Z" fill="#F65700"/>
<path d="M34.4019 14.96L36.2314 13.0861L40.2336 8.9867C38.6327 7.81557 36.9746 6.76156 35.2593 5.73684L35.1449 5.85396L1.69805 40.1128C0.640333 41.1962 0.040026 42.6603 0.0400657 44.1828L0.0400665 44.2121C2.41284 43.5971 4.78562 43.1286 7.21557 42.7771L34.4019 14.96Z" fill="#F65700"/>
<path d="M137.822 40.1776C136.564 42.3151 135.221 44.3941 133.735 46.3853L133.736 94.2306L133.764 94.2306C135.708 93.8792 137.623 93.4399 139.509 92.9127L139.508 44.3354C139.508 42.7835 138.908 41.2902 137.822 40.1776Z" fill="#F65700"/>
<path d="M130.735 41.1974C131.879 39.5577 132.908 37.8594 133.909 36.1025L103.033 4.51077L100.317 1.72929C99.2595 0.645974 97.8016 0.00188041 96.2578 0.00195312C96.8582 2.43217 97.3157 4.89168 97.6588 7.35118L130.735 41.1974Z" fill="#F65700"/>
<path d="M47.5469 137.041C47.89 139.061 48.3189 140.992 48.8335 142.954L96.2616 142.951C97.7768 142.951 99.2634 142.337 100.321 141.224C98.2341 139.937 96.2043 138.561 94.2603 137.039L47.5469 137.041Z" fill="#F65700"/>
<path d="M99.3133 133.933C100.914 135.104 102.572 136.158 104.288 137.183L137.82 102.836C138.907 101.723 139.507 100.2 139.507 98.6487C137.134 99.2636 134.733 99.7322 132.331 100.084L99.3133 133.933Z" fill="#F65700"/>
<path d="M96.6476 33.2069C95.5042 38.3603 97.0195 43.7771 100.679 47.5248L106.568 53.4977L112.229 59.2657C113.887 58.2115 115.487 57.0695 117.031 55.8397L98.6488 35.3736L96.6762 33.0898C96.6762 33.1484 96.6476 33.1777 96.6476 33.2069Z" fill="#F65700"/>
<path d="M33.1633 89.6894L32.9632 89.4845L27.2741 83.658C25.6161 84.7122 24.0152 85.8541 22.5001 87.084L27.2457 91.9443L30.5334 95.3113L43.1695 108.253C43.1695 108.223 43.1695 108.223 43.198 108.223C44.2271 104.124 43.0835 99.7614 40.1389 96.8042L33.1633 89.6894Z" fill="#F65700"/>
<path d="M108.209 85.4165L108.209 93.6152C110.124 94.0543 112.011 94.4056 113.955 94.669L113.955 87.788L113.955 84.3036L113.954 64.6853C113.926 64.7146 113.926 64.7146 113.897 64.7146C110.352 66.9108 108.152 70.8346 108.18 75.0803L108.209 84.8894L108.209 85.0066L108.209 85.4165Z" fill="#F65700"/>
<path d="M57.8941 28.0527C56.8649 26.3546 55.7499 24.7149 54.5492 23.1339L48.8603 28.9608L33.8521 44.2748C33.8807 44.2748 33.8807 44.3041 33.9092 44.3041C37.9116 45.3287 42.1711 44.1866 45.0584 41.1707L49.4323 36.6907L57.8941 28.0527Z" fill="#F65700"/>
<path d="M91.3653 32.094C91.794 30.1325 92.137 28.2004 92.3943 26.2097L85.19 26.21L63.1484 26.2109L63.177 26.2695C65.2927 29.8702 69.1235 32.0949 73.2403 32.0948L83.3605 32.0943L91.3653 32.094Z" fill="#F65700"/>
<path d="M87.3325 109.164L81.6723 114.962C82.6157 116.484 83.6449 118.007 84.7027 119.471L105.686 98.681C105.657 98.681 105.657 98.6517 105.628 98.6517C101.626 97.6271 97.3952 98.7985 94.5079 101.785L87.5612 108.93L87.3325 109.164Z" fill="#F65700"/>
<path d="M66.3493 110.86L56.4292 110.861L56.1719 110.861L48.1671 110.861C47.7384 112.823 47.3668 114.784 47.1095 116.746L53.8278 116.745L57.63 116.745L76.3554 116.744C76.3268 116.715 76.3268 116.715 76.3268 116.686C74.2112 113.056 70.4661 110.86 66.3493 110.86Z" fill="#F65700"/>
<path d="M31.3082 55.2557L31.3081 49.341L25.5625 48.2578L25.5626 52.7085L25.5627 55.1388L25.5627 56.8664L25.5627 57.3935L25.5632 78.2415C25.5918 78.2123 25.5918 78.2123 25.6204 78.2123C29.1649 76.016 31.3372 72.1216 31.3371 67.9051L31.3083 57.7739L31.3083 57.5689L31.3082 55.2557Z" fill="#F65700"/>
<path d="M90.6859 126.524C91.6579 127.519 92.6871 128.485 93.7448 129.422L95.117 128.017L97.8042 125.264L121.703 100.785C119.13 100.756 116.586 100.581 114.07 100.288L89.5709 125.382C89.9426 125.762 90.3142 126.143 90.6859 126.524Z" fill="#F65700"/>
<path d="M123.522 50.0393C124.494 49.0438 125.437 47.9896 126.352 46.9062L125.008 45.5301L123.378 43.8612L98.3922 18.2715C98.3637 20.9067 98.1923 23.5126 97.9064 26.0893L122.407 51.1813C122.75 50.8006 123.15 50.42 123.522 50.0393Z" fill="#F65700"/>
<path d="M53.2578 13.125C55.0589 14.9984 56.7457 16.9888 58.2895 19.0086L92.9386 19.0071C92.9386 18.4802 92.9672 17.924 92.9672 17.3971C92.9671 15.9627 92.9099 14.5577 92.8241 13.1233L91.7092 13.1233L53.2578 13.125Z" fill="#F65700"/>
<path d="M48.8277 16.4267C47.8557 15.4312 46.8265 14.465 45.7688 13.5281L44.3966 14.9336L40.3944 19.0329L17.7819 42.165C20.3548 42.1941 22.8992 42.3697 25.4149 42.6624L49.9141 17.5685C49.571 17.1879 49.1994 16.8073 48.8277 16.4267Z" fill="#F65700"/>
<path d="M12.7813 47.8749L12.7813 49.8367L12.7814 51.9157L12.7822 88.3999C14.6115 86.5551 16.5552 84.8274 18.5274 83.2462L18.5266 47.7283C17.9835 47.699 17.469 47.699 16.9545 47.699C15.5824 47.6991 14.1818 47.787 12.7813 47.8749Z" fill="#F65700"/>
<path d="M52.2881 129.833L86.2797 129.831C84.4786 127.958 82.7918 125.967 81.248 123.948L46.5989 123.949C46.5703 124.505 46.5703 125.032 46.5704 125.559C46.5704 126.994 46.6276 128.399 46.7134 129.833L48.6574 129.833L52.2881 129.833Z" fill="#F65700"/>
<path d="M16.0099 92.9133C15.0379 93.9089 14.0946 94.963 13.1798 96.0464L14.552 97.4518L17.7253 100.702L41.1678 124.71C41.1963 122.075 41.3678 119.469 41.6536 116.893L17.1534 91.8006C16.7532 92.152 16.3815 92.5326 16.0099 92.9133Z" fill="#F65700"/>
<path d="M126.731 95.1067L126.731 93.1156L126.731 89.7776L126.73 54.5525C124.9 56.3973 122.957 58.1249 120.984 59.7062L120.985 95.1948C121.528 95.2241 122.043 95.2241 122.557 95.224C123.958 95.2533 125.359 95.1946 126.731 95.1067Z" fill="#F65700"/>
</svg>
