<svg width="23" height="17" viewBox="0 0 23 17" fill="none" xmlns="http://www.w3.org/2000/svg">
<g clip-path="url(#clip0_1321_494)">
<path d="M22.5745 2.9502C22.3088 1.95756 21.5286 1.17749 20.536 0.911772C18.7387 0.429688 11.5282 0.429688 11.5282 0.429688C11.5282 0.429688 4.31788 0.429688 2.5205 0.911772C1.52787 1.17749 0.747801 1.95756 0.482085 2.9502C1.44306e-07 4.74757 0 8.49986 0 8.49986C0 8.49986 1.44306e-07 12.2522 0.482085 14.0496C0.747801 15.0422 1.52787 15.8223 2.5205 16.0879C4.31788 16.57 11.5282 16.57 11.5282 16.57C11.5282 16.57 18.7387 16.57 20.536 16.0879C21.5286 15.8223 22.3088 15.0422 22.5745 14.0496C23.0566 12.2522 23.0566 8.49986 23.0566 8.49986C23.0566 8.49986 23.0546 4.74757 22.5745 2.9502Z" fill="#2D2D2D"/>
<path d="M9.21875 11.9592L15.2088 8.5011L9.21875 5.04297V11.9592Z" fill="white"/>
</g>
<defs>
<clipPath id="clip0_1321_494">
<rect width="23" height="17" fill="white"/>
</clipPath>
</defs>
</svg>
