<svg width="1163" height="53" viewBox="0 0 1163 53" fill="none" xmlns="http://www.w3.org/2000/svg">
<path d="M7.89601 24.4824C11.871 24.4824 15.8182 25.6252 15.8182 30.9086C15.8182 35.0737 12.8875 36.9794 8.99272 36.9794H5.52674V42.5673H0V24.4824H7.89601ZM5.52674 32.762H8.20142C9.55264 32.762 10.4951 32.3313 10.4951 30.8578C10.4951 29.5627 9.72386 28.9275 8.09962 28.9275H5.52674V32.762Z" fill="#6B6B6B"/>
<path d="M35.7818 33.5254C35.7818 39.1902 32.1137 43 26.6625 43C21.1096 43 17.3906 39.2148 17.3906 33.5008C17.3906 27.7591 21.0834 24 26.7134 24C32.1399 24 35.7818 27.836 35.7818 33.5254ZM23.0454 33.4239C23.0454 36.6539 24.3704 38.4996 26.6625 38.4996C28.93 38.4996 30.1532 36.6969 30.1532 33.2701C30.1532 30.2477 28.8529 28.4435 26.6379 28.4435C24.3951 28.4435 23.0454 30.3231 23.0454 33.4223" fill="#6B6B6B"/>
<path d="M54.2789 24.4824V42.5673H48.7522V29.129H45.4158V30.2056C45.4158 35.3367 45.5423 42.9056 39.0916 42.9056C38.3331 42.9168 37.5799 42.7789 36.875 42.4996V38.2037C37.2102 38.3884 37.5872 38.4843 37.9702 38.4821C39.8551 38.4821 39.9322 35.206 39.9322 32.259V24.4824H54.2789Z" fill="#6B6B6B"/>
<path d="M63.8342 30.1211H66.9192C71.8552 30.1211 74.0779 32.4282 74.0779 36.2165C74.0779 40.1279 71.5559 42.5673 66.5891 42.5673H58.2812V24.4824H63.8342V30.1211ZM63.8342 38.2499H66.3809C67.5778 38.2499 68.6745 37.8423 68.6745 36.2688C68.6745 34.7184 67.7321 34.2354 66.4071 34.2354H63.8342V38.2499Z" fill="#6B6B6B"/>
<path d="M89.2075 40.8185V42.5703H83.7579V40.8185C78.6368 40.8185 75.4531 37.6931 75.4531 33.4526C75.4531 30.0688 77.7962 26.2897 83.7579 26.2897V24.4824H89.2075V26.2866C94.4813 26.2866 97.4367 29.5166 97.4367 33.3987C97.4367 37.6654 94.5322 40.8154 89.2075 40.8154V40.8185ZM83.8844 30.2056C81.6678 30.2056 81.0061 32.1098 81.0061 33.4572C81.0061 35.0568 81.694 36.8856 83.8844 36.8856V30.2056ZM89.081 30.2056V36.8594C91.4503 36.8594 91.8822 34.7061 91.8822 33.4572C91.8822 32.2375 91.3485 30.2056 89.081 30.2056Z" fill="#6B6B6B"/>
<g clip-path="url(#clip0_1321_1314)">
<path d="M207.052 33.8129H211.319C211.211 33.321 210.937 32.8812 210.543 32.5679C210.154 32.2685 209.677 32.1061 209.186 32.1061C208.695 32.1061 208.217 32.2685 207.828 32.5679C207.443 32.8864 207.172 33.3202 207.052 33.8052V33.8129ZM212.483 37.3231L213.258 38.8746C212.7 39.3749 211.482 39.9141 209.612 39.9141C208.326 39.9261 207.077 39.4853 206.083 38.669C205.188 37.839 204.741 36.6469 204.741 35.0929C204.676 33.7947 205.107 32.5206 205.947 31.5284C206.354 31.0824 206.854 30.7312 207.412 30.4993C207.969 30.2674 208.571 30.1606 209.174 30.1864C210.741 30.1864 211.905 30.7475 212.665 31.8697C213.277 32.8753 213.574 34.0411 213.518 35.217V35.5506H206.924C206.912 35.8905 206.975 36.229 207.109 36.5416C207.243 36.8541 207.445 37.133 207.7 37.358C208.324 37.7807 209.061 38.0051 209.814 38.0019C210.744 38.0247 211.662 37.7898 212.467 37.3231" fill="#6B6B6B"/>
<path d="M165.246 24L160.122 35.2675L155.06 24L152 39.6349H154.292L155.809 30.8419L159.998 40.302L164.245 30.8613L165.703 39.6349H167.992L165.246 24Z" fill="#6B6B6B"/>
<path d="M169.954 39.3163C169.73 39.0966 169.589 38.8061 169.555 38.4942C169.521 38.1822 169.596 37.868 169.767 37.6052C169.939 37.3423 170.196 37.147 170.495 37.0524C170.794 36.9578 171.117 36.9698 171.409 37.0864C171.7 37.2029 171.942 37.4168 172.093 37.6917C172.245 37.9665 172.296 38.2854 172.239 38.5939C172.182 38.9025 172.02 39.1818 171.78 39.3842C171.54 39.5866 171.238 39.6997 170.924 39.7042C170.744 39.7092 170.566 39.6773 170.399 39.6106C170.232 39.5439 170.081 39.4438 169.954 39.3163Z" fill="#6B6B6B"/>
<path d="M176.421 33.169V37.5558H177.756C178.824 37.5558 179.57 37.3373 179.994 36.9003C180.198 36.6975 180.36 36.4557 180.469 36.1892C180.579 35.9226 180.633 35.6369 180.63 35.3488C180.636 35.0604 180.582 34.7739 180.473 34.5071C180.363 34.2402 180.2 33.9986 179.994 33.7974C179.57 33.3759 178.838 33.1638 177.798 33.1613L176.421 33.169ZM176.421 27.161V31.3422H177.089C178.671 31.3422 179.462 30.6285 179.462 29.2012C179.462 27.8436 178.698 27.1649 177.17 27.1649L176.421 27.161ZM174.172 25.082H176.379C176.963 25.082 177.383 25.0885 177.639 25.1014C178.009 25.135 178.375 25.2012 178.733 25.2992C179.179 25.406 179.602 25.5926 179.982 25.85C180.514 26.2111 180.945 26.7028 181.233 27.278C181.521 27.8532 181.657 28.4927 181.627 29.1352C181.642 29.65 181.533 30.1609 181.308 30.6242C181.083 31.0875 180.749 31.4896 180.335 31.796C181.116 32.0126 181.793 32.5044 182.239 33.1807C182.655 33.8132 182.876 34.5534 182.876 35.31C182.904 35.936 182.787 36.5601 182.534 37.1334C182.281 37.7067 181.899 38.2137 181.417 38.6146C181.005 38.9458 180.53 39.1899 180.021 39.3322C179.611 39.4652 179.189 39.5562 178.76 39.6037C178.463 39.6244 178.051 39.6347 177.523 39.6347H174.172V25.082Z" fill="#6B6B6B"/>
<path d="M184.414 30.4462H186.536V35.663L192.866 29.6123V39.6347H190.744V34.2938L184.414 40.3407V30.4462Z" fill="#6B6B6B"/>
<path d="M200.697 37.7226V32.3585H197.947V34.8951C197.947 36.2242 197.587 37.1667 196.865 37.7226H200.697ZM195.907 30.4463H202.819V37.7226H204.192V42.2568H202.253V39.6387H195.783V42.2568H193.844V37.7226C194.211 37.6941 194.563 37.567 194.863 37.3546C195.164 37.1423 195.401 36.8526 195.55 36.5164C195.85 35.7422 195.982 34.9134 195.938 34.0845L195.907 30.4463Z" fill="#6B6B6B"/>
<path d="M246.774 30.4463V39.6348H244.648V32.3585H241.906V36.0587C241.962 37.0149 241.658 37.9575 241.053 38.7001C240.736 39.0342 240.35 39.2949 239.922 39.4638C239.494 39.6326 239.034 39.7056 238.574 39.6775C238.463 39.6775 238.282 39.6633 238.031 39.6348V37.7226C238.159 37.747 238.289 37.7612 238.419 37.7653C238.629 37.7751 238.838 37.7392 239.032 37.6602C239.226 37.5812 239.401 37.4609 239.544 37.3076C239.787 36.9549 239.898 36.5279 239.858 36.1014V30.4463H246.774Z" fill="#6B6B6B"/>
<path d="M250.915 37.804H251.873C252.253 37.8321 252.634 37.7599 252.978 37.5946C253.136 37.4977 253.265 37.3593 253.349 37.1945C253.434 37.0297 253.472 36.8447 253.459 36.6598C253.468 36.4807 253.431 36.3023 253.351 36.1419C253.27 35.9815 253.15 35.8446 253.001 35.7444C252.657 35.5793 252.276 35.5071 251.896 35.535H250.918L250.915 37.804ZM248.789 30.4346H250.915V33.7004H252.163C252.551 33.7004 252.864 33.7107 253.102 33.7314C253.421 33.7734 253.732 33.8568 254.029 33.9797C254.395 34.1154 254.72 34.3408 254.976 34.6351C255.444 35.2464 255.686 36.0017 255.659 36.7716C255.632 37.5415 255.338 38.278 254.828 38.8551C254.576 39.0916 254.28 39.275 253.955 39.3943C253.685 39.5047 253.4 39.5753 253.11 39.6037C252.88 39.6166 252.557 39.6231 252.14 39.6231H248.789V30.4346Z" fill="#6B6B6B"/>
<path d="M263.025 37.7226V32.3585H260.275V34.8951C260.275 36.2242 259.915 37.1667 259.193 37.7226H263.025ZM258.235 30.4463H265.147V37.7226H266.52V42.2568H264.581V39.6387H258.111V42.2568H256.172V37.7226C256.539 37.6941 256.891 37.567 257.191 37.3546C257.492 37.1423 257.729 36.8526 257.878 36.5164C258.178 35.7423 258.31 34.9134 258.266 34.0845L258.235 30.4463Z" fill="#6B6B6B"/>
<path d="M282.635 32.106C282.292 32.1011 281.952 32.1675 281.636 32.3011C281.32 32.4346 281.036 32.6323 280.8 32.8817C280.533 33.176 280.326 33.5206 280.193 33.8956C280.06 34.2705 280.003 34.6681 280.025 35.0654C279.999 35.8216 280.242 36.5625 280.711 37.156C280.941 37.4415 281.235 37.6686 281.57 37.8189C281.904 37.9692 282.269 38.0384 282.635 38.0209C282.99 38.0334 283.344 37.9627 283.667 37.8146C283.99 37.6664 284.274 37.4449 284.497 37.1676C284.974 36.5655 285.221 35.8136 285.195 35.046C285.215 34.6536 285.157 34.2611 285.024 33.8914C284.891 33.5218 284.685 33.1824 284.419 32.8933C284.19 32.6463 283.911 32.4497 283.601 32.3162C283.291 32.1826 282.957 32.115 282.62 32.1176L282.635 32.106ZM280.141 30.4536V31.4272C280.479 31.0187 280.906 30.6936 281.39 30.477C281.873 30.2604 282.4 30.1581 282.93 30.1783C283.519 30.1703 284.103 30.2844 284.646 30.5134C285.188 30.7424 285.678 31.0812 286.083 31.5086C286.932 32.4854 287.395 33.7383 287.386 35.0322C287.377 36.3262 286.895 37.5723 286.033 38.5368C285.641 38.9655 285.165 39.3088 284.634 39.545C284.104 39.7813 283.53 39.9055 282.949 39.9098C282.698 39.9082 282.447 39.8809 282.201 39.8284C281.849 39.7433 281.51 39.6129 281.192 39.4405C280.786 39.2278 280.428 38.9333 280.141 38.5756V44.0057H278.016V30.4304L280.141 30.4536Z" fill="#6B6B6B"/>
<path d="M293.248 32.1063C292.893 32.0971 292.541 32.1693 292.219 32.3172C291.896 32.465 291.611 32.6848 291.387 32.9596C290.924 33.5612 290.672 34.2979 290.668 35.0566C290.665 35.8154 290.91 36.5543 291.367 37.1602C291.594 37.4382 291.883 37.6598 292.21 37.8079C292.537 37.9559 292.893 38.0263 293.252 38.0135C293.609 38.0291 293.965 37.9623 294.292 37.8184C294.618 37.6744 294.908 37.4572 295.137 37.1835C295.618 36.5837 295.866 35.8301 295.835 35.0618C295.861 34.6665 295.808 34.27 295.679 33.8952C295.551 33.5204 295.349 33.1747 295.087 32.8782C294.852 32.6287 294.568 32.4309 294.253 32.2973C293.938 32.1638 293.598 32.0974 293.256 32.1024L293.248 32.1063ZM295.715 30.4385H297.841V39.627H295.707V38.669C295.368 39.075 294.94 39.3984 294.457 39.6148C293.974 39.8312 293.448 39.9348 292.919 39.9179C292.303 39.9403 291.691 39.8208 291.13 39.5686C290.568 39.3163 290.072 38.9382 289.68 38.4634C288.872 37.5045 288.439 36.2847 288.462 35.0308C288.436 33.7855 288.865 32.5735 289.668 31.6215C290.067 31.1483 290.57 30.7728 291.136 30.5241C291.703 30.2753 292.32 30.1597 292.938 30.1864C293.474 30.1615 294.007 30.2701 294.49 30.5023C294.974 30.7345 295.392 31.0831 295.707 31.5168L295.715 30.4385Z" fill="#6B6B6B"/>
<path d="M305.643 37.7226V32.3585H302.893V34.8951C302.893 36.2242 302.532 37.1667 301.811 37.7226H305.643ZM300.86 30.4463H307.772V37.7226H309.145V42.2568H307.206V39.6387H300.728V42.2568H298.789V37.7226C299.156 37.6941 299.508 37.567 299.809 37.3546C300.109 37.1423 300.346 36.8526 300.496 36.5164C300.795 35.7423 300.928 34.9134 300.884 34.0845L300.86 30.4463Z" fill="#6B6B6B"/>
<path d="M226.393 28.4873L225.156 27.1298C226.475 25.5395 228.883 24.8026 230.617 24.8026C231.548 24.7685 232.476 24.9185 233.349 25.2439C234.221 25.5694 235.021 26.064 235.702 26.6993C237.145 28.0982 237.866 29.9754 237.866 32.3311C237.866 34.6039 237.145 36.4605 235.702 37.9008C235.025 38.5716 234.217 39.0966 233.329 39.4435C232.442 39.7904 231.492 39.9518 230.539 39.9177C228.988 39.9177 226.385 39.076 225.109 37.5634L226.393 36.1981C227.468 37.2329 228.896 37.8196 230.388 37.8387C232.053 37.8387 233.364 37.3216 234.321 36.2873C235.107 35.4414 235.558 34.3384 235.589 33.1844H228.333V31.1054H235.512C235.376 30.0353 234.911 29.0337 234.182 28.2391C233.292 27.3108 232.07 26.8466 230.516 26.8466C228.987 26.8667 227.518 27.451 226.393 28.4873Z" fill="#6B6B6B"/>
<path d="M219.469 32.2772C218.919 32.2779 218.381 32.4419 217.923 32.7484C217.466 33.0549 217.109 33.4901 216.899 33.999C216.689 34.5079 216.634 35.0678 216.742 35.6077C216.85 36.1477 217.116 36.6435 217.505 37.0326C217.895 37.4217 218.391 37.6865 218.931 37.7937C219.471 37.9008 220.031 37.8455 220.54 37.6346C221.048 37.4237 221.483 37.0667 221.789 36.6088C222.095 36.1509 222.258 35.6127 222.258 35.062C222.257 34.3231 221.963 33.6148 221.44 33.0926C220.917 32.5704 220.208 32.2772 219.469 32.2772ZM219.469 39.9298C218.507 39.9282 217.567 39.6414 216.767 39.1056C215.968 38.5698 215.345 37.8091 214.978 36.9195C214.61 36.0299 214.515 35.0514 214.704 34.1077C214.893 33.1639 215.357 32.2973 216.038 31.6173C216.719 30.9373 217.586 30.4745 218.53 30.2873C219.474 30.1001 220.453 30.197 221.342 30.5656C222.231 30.9343 222.99 31.5582 223.525 32.3585C224.06 33.1588 224.345 34.0996 224.345 35.062C224.343 36.3537 223.828 37.5918 222.914 38.5045C222 39.4171 220.761 39.9298 219.469 39.9298Z" fill="#6B6B6B"/>
<path d="M314.251 32.2772C313.7 32.2779 313.162 32.4419 312.704 32.7484C312.247 33.0549 311.891 33.4901 311.68 33.999C311.47 34.5079 311.416 35.0678 311.524 35.6077C311.631 36.1477 311.897 36.6435 312.287 37.0326C312.676 37.4217 313.172 37.6865 313.713 37.7937C314.253 37.9008 314.812 37.8455 315.321 37.6346C315.83 37.4237 316.264 37.0667 316.57 36.6088C316.876 36.1509 317.039 35.6127 317.039 35.062C317.038 34.3231 316.744 33.6148 316.221 33.0926C315.698 32.5704 314.99 32.2772 314.251 32.2772ZM314.251 39.9298C313.288 39.9282 312.348 39.6414 311.548 39.1056C310.749 38.5698 310.126 37.8091 309.759 36.9195C309.392 36.0299 309.296 35.0514 309.485 34.1077C309.674 33.1639 310.138 32.2973 310.819 31.6173C311.5 30.9373 312.368 30.4745 313.312 30.2873C314.256 30.1001 315.234 30.197 316.123 30.5656C317.012 30.9343 317.772 31.5582 318.306 32.3585C318.841 33.1588 319.126 34.0996 319.126 35.062C319.124 36.3537 318.609 37.5918 317.695 38.5045C316.781 39.4171 315.542 39.9298 314.251 39.9298Z" fill="#6B6B6B"/>
<path d="M271.95 32.2772C271.399 32.2779 270.861 32.4419 270.404 32.7484C269.946 33.0549 269.59 33.4901 269.38 33.999C269.169 34.5079 269.115 35.0678 269.223 35.6077C269.331 36.1477 269.596 36.6435 269.986 37.0326C270.375 37.4217 270.872 37.6865 271.412 37.7937C271.952 37.9008 272.512 37.8455 273.02 37.6346C273.529 37.4237 273.964 37.0667 274.269 36.6088C274.575 36.1509 274.738 35.6127 274.738 35.062C274.737 34.3231 274.443 33.6148 273.92 33.0926C273.397 32.5705 272.689 32.2772 271.95 32.2772ZM271.95 39.9298C270.987 39.9305 270.045 39.6457 269.244 39.1113C268.443 38.5769 267.819 37.8169 267.45 36.9275C267.081 36.0381 266.984 35.0593 267.171 34.1148C267.359 33.1703 267.822 32.3026 268.502 31.6214C269.183 30.9403 270.05 30.4763 270.995 30.2882C271.939 30.1 272.918 30.1962 273.808 30.5645C274.697 30.9328 275.458 31.5567 275.993 32.3573C276.528 33.1579 276.814 34.0991 276.814 35.062C276.811 36.3538 276.297 37.5919 275.383 38.5045C274.469 39.4172 273.23 39.9298 271.938 39.9298" fill="#6B6B6B"/>
</g>
<g clip-path="url(#clip1_1321_1314)">
<path d="M382.068 46.6415L386.862 41.8381L385.252 40.2254L382.248 43.2369L376.789 37.7629L375 39.5606L382.068 46.6415ZM384.042 33.3872L385.252 34.5953L387.736 32.0982L389.177 33.5433L386.688 36.0404L388.228 37.578L391.302 34.497L392.743 35.9421L387.88 40.8207L380.806 33.7398L385.675 28.8554L387.116 30.3005L384.042 33.3872ZM399.782 28.9017L394.972 27.5202C395.24 26.9455 395.32 26.3012 395.2 25.6787C395.081 25.0561 394.768 24.487 394.306 24.052C394.03 23.7945 393.705 23.5947 393.35 23.4644C392.996 23.3341 392.619 23.2758 392.241 23.2931C391.864 23.3103 391.493 23.4027 391.152 23.5648C390.811 23.7268 390.505 23.9554 390.254 24.2369L386.671 27.8265L393.774 34.9132L395.568 33.1155L389.849 27.3815L391.006 26.2254C391.124 26.1028 391.265 26.0047 391.421 25.9366C391.576 25.8685 391.744 25.8318 391.914 25.8286C392.084 25.8254 392.253 25.8557 392.411 25.9178C392.569 25.98 392.714 26.0727 392.836 26.1907C393.076 26.4384 393.208 26.7711 393.202 27.1158C393.197 27.4604 393.055 27.7888 392.807 28.0289L391.753 29.0867L397.866 30.8208L399.782 28.9017ZM396.546 17.6531C398.758 15.4393 401.681 15.6532 403.748 17.7283C405.815 19.8034 406.035 22.7341 403.823 24.9479C401.612 27.1618 398.694 26.9479 396.622 24.8554C394.549 22.763 394.335 19.8497 396.546 17.6358V17.6531ZM397.947 19.0751C396.824 20.1965 397.201 21.5664 398.567 22.9364C399.933 24.3063 401.293 24.6705 402.416 23.5549C403.54 22.4393 403.163 21.0635 401.797 19.6936C400.431 18.3237 399.07 17.919 397.947 19.0751ZM405.878 13.9306L404.558 9.93062L406.654 7.83236L408.408 14.6936L411.175 17.4682L409.386 19.2659L406.631 16.5029L400.072 14.4277L402.046 12.4508L405.838 13.9248L405.878 13.9306ZM438.58 38.3467L445.654 31.2658L443.767 29.3757L436.699 36.4566L438.58 38.3467ZM411.534 11.237L417.034 8.60692L412.97 12.6763L414.608 14.3179L421.671 7.2312L419.43 4.98265L414.11 7.5838L416.773 2.31791L414.457 0L407.389 7.08091L409.022 8.72253L413.086 4.65317L410.463 10.1618L411.534 11.237ZM423.789 12.2428L422.579 13.4508L425.294 16.1676L423.853 17.6127L421.144 14.8959L419.604 16.4335L422.904 19.7398L421.462 21.1849L416.368 16.0809L423.436 8.9942L428.53 14.0982L427.089 15.5433L423.789 12.2428ZM430.609 30.3641L435.402 35.1733L437.017 33.5549L434.013 30.5491L439.472 25.0751L437.677 23.2832L430.609 30.3641ZM449.654 35.2716L447.385 42.7803H447.379L452.265 37.8901L453.944 39.5722L446.876 46.6531L444.658 44.4334L446.592 36.6936H446.598L441.77 41.5317L440.137 39.8959L447.2 32.815L449.654 35.2716ZM429.271 29.0231L430.632 24.2023C431.207 24.4736 431.854 24.5549 432.478 24.4343C433.103 24.3137 433.673 23.9976 434.105 23.5317C434.361 23.2548 434.558 22.9302 434.688 22.5766C434.817 22.223 434.875 21.8474 434.858 21.4714C434.842 21.0953 434.751 20.7263 434.591 20.3855C434.431 20.0447 434.205 19.7388 433.926 19.4855L430.122 15.6705L423.048 22.7745L424.843 24.5722L430.574 18.8381L431.934 20.2312C432.053 20.3492 432.147 20.4894 432.211 20.6438C432.276 20.7982 432.309 20.9637 432.309 21.1309C432.31 21.2981 432.277 21.4637 432.213 21.6183C432.149 21.7728 432.055 21.9133 431.937 22.0318C431.819 22.1502 431.679 22.2442 431.524 22.3084C431.369 22.3726 431.204 22.4058 431.036 22.4061C430.869 22.4064 430.703 22.3737 430.548 22.31C430.393 22.2462 430.253 22.1527 430.134 22.0346L428.837 20.7456L427.332 27.104L429.271 29.0231Z" fill="#6B6B6B"/>
<path d="M383.414 48H445.547L414.478 16.8613L383.414 48Z" fill="#6B6B6B"/>
</g>
<g clip-path="url(#clip2_1321_1314)">
<path d="M562.435 29.7358C562.275 29.5753 562.114 29.4148 561.853 29.3138C561.639 29.2068 561.324 29.1533 561.003 29.1533H559.992V33.1355H561.211C561.425 33.1355 561.579 33.0821 561.793 33.0286C562.007 32.9751 562.162 32.8681 562.322 32.7076C562.483 32.5471 562.59 32.3391 562.691 32.1251C562.798 31.8577 562.798 31.5961 562.798 31.2217C562.798 30.9007 562.744 30.6392 562.691 30.3718C562.702 30.1578 562.596 29.8963 562.435 29.7358Z" fill="#6B6B6B"/>
<path d="M576.971 28.25C576.971 31.4893 579.569 34.0866 582.808 34.0866C586.047 34.0866 588.645 31.4893 588.645 28.25C588.645 25.0107 586.047 22.4134 582.808 22.4134C581.958 22.4134 581.162 22.5738 580.472 22.8888C580.312 22.9423 580.104 22.9958 579.89 22.9958C579.147 22.9958 578.564 22.3599 578.564 21.6169C578.564 21.3494 578.618 21.1414 578.778 20.9275C579.468 19.816 579.89 18.4846 579.89 17.0522C579.89 13.0224 576.65 9.78315 572.621 9.78315C568.591 9.78315 565.352 13.0224 565.352 17.0522C565.352 18.5381 565.774 19.8635 566.516 21.0344C566.677 21.2484 566.73 21.5634 566.73 21.8844C566.73 22.7343 566.041 23.3703 565.191 23.3703C564.977 23.3703 564.769 23.3168 564.555 23.2098C563.444 22.7343 562.219 22.4134 560.947 22.4134C559.568 22.4134 558.296 22.7343 557.126 23.3168C556.858 23.4238 556.597 23.4773 556.329 23.4773C555.265 23.4773 554.421 22.6273 554.421 21.5694C554.421 21.2484 554.528 20.9334 554.635 20.6659C555.592 19.0195 556.121 17.1651 556.121 15.1502C556.121 8.9867 551.128 4 544.977 4C538.825 4 533.832 8.9867 533.832 15.1443C533.832 16.9987 534.254 18.7521 535.051 20.238C535.211 20.5589 535.318 20.9275 535.372 21.3019C535.532 22.8948 534.308 24.3272 532.721 24.4342C532.139 24.4877 531.556 24.3272 531.075 24.1132C529.006 23.0493 526.617 22.4134 524.127 22.4134C515.74 22.4134 509 29.1534 509 37.4805C509 45.8075 515.74 52.5 524.067 52.5C532.394 52.5 539.081 45.7599 539.081 37.4864C539.081 34.6216 538.284 31.9172 536.852 29.6349C536.638 29.2664 536.483 28.8384 536.43 28.4164C536.269 26.8235 537.44 25.3911 539.027 25.2306C539.556 25.1771 540.038 25.2841 540.46 25.4446C541.839 26.0271 543.324 26.348 544.864 26.348C546.879 26.348 548.739 25.8191 550.38 24.8621C550.647 24.7017 550.962 24.6482 551.283 24.6482C552.347 24.6482 553.191 25.4981 553.191 26.5561C553.191 26.877 553.137 27.1385 552.977 27.3525C552.394 28.5175 552.073 29.7953 552.073 31.1743C552.073 36.0005 556.002 39.9292 560.828 39.9292C565.655 39.9292 569.583 36.0005 569.583 31.1743C569.583 29.2664 569.001 27.513 567.937 26.0806C567.777 25.8131 567.67 25.5516 567.67 25.2306C567.67 24.3807 568.359 23.7447 569.209 23.7447C569.423 23.7447 569.577 23.7982 569.738 23.8517C570.588 24.2202 571.491 24.3807 572.496 24.3807C573.714 24.3807 574.832 24.0597 575.836 23.5843C576.05 23.4773 576.258 23.4773 576.472 23.4773C577.215 23.5308 577.797 24.1667 577.744 24.9097C577.744 25.1237 577.691 25.2782 577.584 25.4387C577.239 26.2351 576.971 27.1861 576.971 28.25ZM581.108 26.1816H581.958V28.886L583.658 26.1816H584.561V30.2114H583.711V27.507L582.012 30.2114H581.108V26.1816ZM529.428 42.7346H527.36V35.5191H527.306L524.02 40.0838L520.733 35.5725V42.6811H518.664V32.6007H521.054L524.025 36.9515L526.997 32.6007H529.387V42.7346H529.428ZM547.895 18.8591H542.005V11.1086H547.788V12.541H543.705V14.1874H547.473V15.5128H543.705V17.4207H547.895V18.8591ZM564.026 32.3868C563.919 32.7553 563.705 33.1297 563.497 33.3972C563.23 33.6646 562.968 33.9262 562.594 34.0866C562.225 34.2471 561.797 34.3541 561.322 34.3541H558.617V27.9825H561.322C561.744 27.9825 562.118 28.036 562.433 28.1965C562.802 28.3035 563.069 28.5175 563.337 28.779C563.604 29.0464 563.812 29.3615 563.919 29.7359C564.08 30.1044 564.133 30.5858 564.133 31.1148C564.234 31.5903 564.181 32.0183 564.026 32.3868ZM574.689 18.4846C574.582 18.7521 574.422 18.9601 574.267 19.1206C574.053 19.2811 573.845 19.4415 573.631 19.4891C573.364 19.5961 573.102 19.6496 572.781 19.6496C572.413 19.6496 572.092 19.5961 571.771 19.4356C571.45 19.3286 571.242 19.1146 571.028 18.9066C570.814 18.6926 570.659 18.4311 570.552 18.1102C570.445 17.7892 570.392 17.4742 570.392 17.0998C570.392 16.7313 570.445 16.4103 570.552 16.0893C570.659 15.7684 570.82 15.5069 571.028 15.2929C571.242 15.0789 571.503 14.8709 571.771 14.7639C572.092 14.6569 572.407 14.5499 572.781 14.5499C573.049 14.5499 573.31 14.6034 573.524 14.6569C573.738 14.7639 573.946 14.8709 574.16 14.9779C574.374 15.1384 574.528 15.2988 574.635 15.5069C574.742 15.7208 574.849 15.9824 574.849 16.2498H573.786C573.786 16.1428 573.732 16.0358 573.679 15.9289C573.625 15.8219 573.518 15.7149 573.411 15.6614C573.304 15.6079 573.197 15.5009 573.09 15.5009C572.983 15.4474 572.823 15.4474 572.722 15.4474C572.454 15.4474 572.3 15.5009 572.086 15.6079C571.925 15.7149 571.765 15.8219 571.664 15.9764C571.557 16.1369 571.503 16.2974 571.45 16.5054C571.396 16.7194 571.396 16.9274 571.396 17.1414C571.396 17.3553 571.396 17.5634 571.45 17.7238C571.503 17.9378 571.557 18.0923 571.664 18.2528C571.771 18.4133 571.931 18.5203 572.086 18.6213C572.24 18.7224 572.454 18.7818 572.722 18.7818C573.043 18.7818 573.304 18.6748 573.518 18.4608C573.732 18.2469 573.839 17.9854 573.839 17.6644H574.903C574.849 17.9556 574.796 18.2706 574.689 18.4846Z" fill="#6B6B6B"/>
</g>
<g clip-path="url(#clip3_1321_1314)">
<path d="M645.439 48.7972C653.337 52.1199 654.505 48.5306 654.556 47.1652C654.609 45.8826 653.793 44.9972 652.177 44.5706C651.398 44.3864 650.593 44.3341 649.796 44.4159C648.996 44.4746 648.532 44.2079 648.444 43.3732C648.356 42.5386 648.591 41.8586 649.511 41.6559C649.946 41.5775 650.389 41.5471 650.831 41.5652C651.498 41.5934 652.162 41.4694 652.775 41.2026C653.21 41.0274 653.585 40.7285 653.852 40.3427C654.119 39.9569 654.268 39.5011 654.279 39.0319C654.329 37.9652 653.78 37.2719 652.889 36.8026C651.129 35.8772 647.108 36.7092 645.833 38.4346C645.444 38.9679 644.791 37.7732 644.724 37.0666C644.644 36.2132 645.103 35.6399 645.721 35.1546C648.121 33.2746 653.401 33.3199 655.772 35.2372C656.245 35.6224 656.632 36.103 656.907 36.6476C657.182 37.1922 657.339 37.7887 657.367 38.3981C657.396 39.0075 657.297 39.6161 657.075 40.1844C656.852 40.7526 656.513 41.2676 656.079 41.6959C655.647 42.1199 655.153 42.4826 654.671 42.8852C657.028 44.2826 658.017 45.9519 657.684 47.8959C657.276 50.2959 655.428 52.0266 652.751 52.4292C649.794 52.9111 646.763 52.3532 644.172 50.8505C644.236 50.6985 645.127 49.2799 645.439 48.7972Z" fill="#6B6B6B"/>
<path d="M674.443 44.9254C673.763 41.3174 670.443 39.4107 666.275 40.4347C667.579 38.7067 668.766 37.1654 669.91 35.5947C670.177 35.24 670.798 34.9227 670.457 34.3867C670.166 33.936 669.59 33.8267 669.035 33.7947C668.371 33.7547 667.758 33.9227 667.363 34.4374C665.302 37.144 662.934 39.6481 661.419 42.7334C659.497 46.6507 660.947 50.7574 664.678 52.1094C665.972 52.5821 667.366 52.7152 668.726 52.496C672.563 51.9121 675.126 48.56 674.443 44.9254ZM667.51 50.0347C665.145 50.0347 663.526 48.3707 663.569 46.0027C663.609 43.8694 665.321 42.2694 667.569 42.296C669.902 42.3147 671.457 43.9201 671.419 46.2667C671.382 48.5147 669.793 50.0454 667.499 50.0347H667.51Z" fill="#6B6B6B"/>
<path d="M691.254 38.5089C690.304 35.7622 687.96 33.9756 685.243 33.8022C681.998 33.6022 679.456 34.7569 678.091 37.7782C676.526 41.2449 676.536 44.8422 677.976 48.3649C679.12 51.1622 681.576 52.7142 684.579 52.6316C687.654 52.5409 689.891 51.1275 691.11 48.2422C691.538 47.2194 691.8 46.1346 691.886 45.0289C691.886 43.8502 691.886 42.6715 691.886 41.4929C691.837 40.4706 691.624 39.4629 691.254 38.5089ZM687.643 48.1089C686.214 50.5862 682.774 50.4849 681.27 48.0422C680.355 46.5569 680.203 44.8849 680.134 43.3569C680.155 41.8102 680.331 40.4556 680.859 39.1702C681.499 37.6102 682.622 36.6182 684.355 36.5436C685.116 36.4792 685.878 36.6649 686.524 37.0725C687.171 37.4801 687.666 38.0874 687.936 38.8022C689.27 41.9169 689.371 45.1036 687.643 48.0982V48.1089Z" fill="#6B6B6B"/>
<path d="M668.008 10.6555C668.479 10.0854 669.083 9.64078 669.768 9.36156C670.452 9.08234 671.195 8.9772 671.931 9.05553C674.331 9.21553 675.624 10.5809 675.645 12.9969C675.659 14.5969 675.605 16.1969 675.667 17.7969C675.699 18.6369 675.493 18.9515 674.6 18.9222C673.8 18.8955 673.405 18.7889 673.461 17.8555C673.547 16.3969 673.504 14.9222 673.483 13.4662C673.459 11.9222 672.848 11.1862 671.565 11.0822C670.155 10.9649 669.208 11.6955 669.088 13.2155C668.983 14.809 668.968 16.407 669.043 18.0022C669.072 18.8369 668.701 18.9515 668.024 18.9009C667.424 18.8555 666.773 19.0689 666.829 18.0262C666.907 16.5222 666.872 15.0102 666.843 13.4929C666.811 11.9435 665.997 11.0715 664.635 11.0502C663.211 11.0262 662.475 11.7755 662.424 13.4289C662.376 14.9329 662.347 16.4475 662.424 17.9489C662.48 18.9169 661.965 18.8849 661.296 18.8929C660.627 18.9009 660.115 18.8929 660.168 17.9409C660.253 16.3942 660.213 14.8369 660.187 13.2849C660.157 11.6635 660.568 10.2822 662.163 9.55153C663.899 8.75153 665.603 8.82886 667.205 9.9302C667.488 10.1542 667.756 10.3965 668.008 10.6555Z" fill="#6B6B6B"/>
<path d="M678.022 15.403C678.022 14.7817 678.022 14.163 678.022 13.5363C678.022 10.7283 679.732 9.06435 682.614 9.04035C685.572 9.01369 687.31 10.6857 687.316 13.5603C687.316 15.067 687.273 16.579 687.34 18.0937C687.382 19.0777 686.758 18.8644 686.212 18.8804C685.665 18.8963 685.078 19.003 685.129 18.059C685.204 16.6003 685.18 15.1257 685.129 13.6697C685.081 11.9097 684.225 11.0377 682.641 11.0457C681.057 11.0537 680.222 11.9097 680.188 13.691C680.161 15.1524 680.132 16.6244 680.206 18.0803C680.254 19.0457 679.657 18.8804 679.1 18.8804C678.542 18.8804 677.916 19.027 677.99 18.0803C678.062 17.2004 678.006 16.307 678.006 15.4137L678.022 15.403Z" fill="#6B6B6B"/>
<path d="M676.101 29.267V26.867C676.101 25.6617 676.568 24.707 677.669 24.1603C678.276 23.8342 678.952 23.6591 679.641 23.6498C680.33 23.6405 681.011 23.7973 681.626 24.107C682.098 24.339 682.296 24.747 682.066 25.3283C681.8 25.9923 681.405 25.6617 681 25.579C678.89 25.155 678.04 25.875 678.034 28.0643C678.034 29.259 677.976 30.4643 678.053 31.6483C678.114 32.5443 677.626 32.4963 677.005 32.5177C676.341 32.5417 676.034 32.3817 676.093 31.6483C676.146 30.8643 676.098 30.0643 676.101 29.267Z" fill="#6B6B6B"/>
<path d="M653.484 27.9465C653.45 26.8058 652.974 25.723 652.157 24.9268C651.339 24.1306 650.244 23.6835 649.103 23.6798C648.036 23.6798 647.204 24.2318 646.242 24.7465C646.242 23.4372 646.215 20.7998 646.215 20.2878C646.215 19.8958 644.156 19.7252 644.156 20.4132V29.2665C644.156 31.5572 646.322 32.6825 648.828 32.6825C651.863 32.6852 653.594 30.4905 653.484 27.9465ZM648.772 30.9998C647.234 30.9625 646.207 29.8478 646.215 28.2238C646.223 26.5998 647.282 25.5012 648.81 25.4958C650.396 25.4958 651.476 26.6505 651.442 28.3225C651.407 29.9065 650.279 31.0372 648.772 30.9998Z" fill="#6B6B6B"/>
<path d="M683.028 27.9465C683.13 25.5305 684.983 23.7038 687.295 23.6798C688.33 23.6798 689.146 24.2318 690.084 24.7465C690.084 23.4372 690.108 20.7998 690.108 20.2878C690.108 19.8958 692.116 19.7252 692.116 20.4132V29.2665C692.116 31.5572 690.007 32.6825 687.562 32.6825C684.615 32.6852 682.922 30.4905 683.028 27.9465ZM687.62 30.9998C689.122 30.9625 690.122 29.8478 690.111 28.2238C690.1 26.5998 689.082 25.5012 687.586 25.4958C686.039 25.4958 684.983 26.6505 685.02 28.3225C685.052 29.9065 686.151 31.0372 687.62 30.9998Z" fill="#6B6B6B"/>
<path d="M673.942 27.5838C673.942 26.1118 673.529 24.8451 672.075 24.2158C670.725 23.6221 669.214 23.5018 667.787 23.8745C667.051 24.0585 666.326 24.3598 666.601 25.2825C666.918 26.3491 667.603 25.4931 668.102 25.4158C669.305 25.2345 670.502 25.0665 671.502 25.9491C671.803 26.2158 672.174 27.1678 671.043 27.1678C669.913 27.1678 668.833 27.0905 667.745 27.3918C666.478 27.7411 665.793 28.5171 665.745 29.8505C665.697 31.1838 666.363 32.0105 667.587 32.4371C668.571 32.7785 669.59 32.7571 670.609 32.7518C673.945 32.7278 673.945 32.7305 673.942 29.4398C673.942 28.8265 673.939 28.2051 673.942 27.5838ZM671.955 30.8558C671.955 31.3891 667.726 31.6958 667.726 29.9918C667.726 28.5625 668.526 28.5171 670.241 28.5171C671.473 28.5171 671.955 28.5171 671.955 28.7678V30.8558Z" fill="#6B6B6B"/>
<path d="M659.683 23.6964C657.03 23.6804 654.99 25.6537 654.984 28.2297C654.984 30.771 656.934 32.7124 659.542 32.763C662.24 32.8057 664.326 30.923 664.392 28.3817C664.462 25.7711 662.384 23.6964 659.683 23.6964ZM659.734 31.0697C658.23 31.1097 656.99 29.8324 656.992 28.243C656.995 26.6537 658.168 25.4271 659.739 25.4564C661.251 25.4831 662.315 26.635 662.315 28.2457C662.312 29.8084 661.203 31.0217 659.734 31.0644V31.0697Z" fill="#6B6B6B"/>
<path d="M650.97 5.78625C647.127 5.76492 644.167 8.62625 644.156 12.3729C644.156 16.0529 646.986 18.8716 650.767 18.9303C654.679 18.9889 657.7 16.2636 657.799 12.5756C657.898 8.80225 654.887 5.80758 650.97 5.78625ZM651.044 16.7409C648.863 16.8023 646.799 14.6823 646.804 12.3783C646.804 10.0236 648.775 8.02892 651.052 8.07159C653.244 8.11159 655.052 10.0476 655.052 12.3809C655.063 14.6529 653.175 16.6823 651.044 16.7409Z" fill="#6B6B6B"/>
<path d="M692.13 9.8744C692.13 12.9704 692.114 15.7891 692.106 18.8877H690.023V9.9064C690.023 9.14373 692.13 9.12507 692.13 9.8744Z" fill="#6B6B6B"/>
<path d="M691.13 7.69869C691.741 7.69869 692.237 7.20321 692.237 6.59202C692.237 5.98082 691.741 5.48535 691.13 5.48535C690.519 5.48535 690.023 5.98082 690.023 6.59202C690.023 7.20321 690.519 7.69869 691.13 7.69869Z" fill="#6B6B6B"/>
</g>
<g clip-path="url(#clip4_1321_1314)">
<path d="M775.452 38.3998L769.853 43.9986L749.14 44L747.453 42.3129V21.5999L753.053 16H773.766L775.452 17.6863V38.3998Z" fill="#6B6B6B"/>
<path d="M773.765 16L767.468 22.2975V31.4896L762.309 24.4007H751.435V26.6283H754.64V35.1255L747.453 42.3129V44L749.139 43.9986L757.056 36.0819V26.6283H760.26V35.599H762.645V28.5099L767.804 35.599H769.852V23.2856L775.452 17.6863L775.452 16H773.765Z" fill="white"/>
<path d="M790.576 28.9739H786.656V25.8008H798.117V28.9739H794.198V38.8655H790.576V28.9739H790.576Z" fill="#6B6B6B"/>
<path d="M800.023 25.8008H810.531V28.879H803.607V30.8595H809.878V33.7159H803.607V35.7866H810.625V38.8658H800.023V25.8008Z" fill="#6B6B6B"/>
<path d="M816.59 32.2214L812.295 25.8008H816.459L818.773 29.4773L821.107 25.8008H825.175L820.884 32.1841L825.363 38.8655H821.2L818.698 34.9279L816.179 38.8655H812.109L816.59 32.2214Z" fill="#6B6B6B"/>
<path d="M827.07 25.8008H830.692V30.691H835.34V25.8008H838.961V38.8655H835.34V33.9003H830.692V38.8655H827.07V25.8008Z" fill="#6B6B6B"/>
<path d="M841.133 32.3337C841.133 28.5811 844.157 25.5391 848.189 25.5391C852.22 25.5391 855.207 28.5445 855.207 32.3337C855.207 36.0856 852.183 39.128 848.152 39.128C844.118 39.1283 841.133 36.1218 841.133 32.3337ZM851.51 32.3337C851.51 30.448 850.148 28.8047 848.152 28.8047C846.171 28.8047 844.847 30.4101 844.847 32.3337C844.847 34.2193 846.21 35.8597 848.189 35.8597C850.185 35.8601 851.51 34.2562 851.51 32.3337Z" fill="#6B6B6B"/>
<path d="M857.398 25.8008H861.022V30.691H865.668V25.8008H869.29V38.8655H865.668V33.9003H861.022V38.8655H857.398V25.8008Z" fill="#6B6B6B"/>
<path d="M872.109 25.8008H875.694V33.1538L880.754 25.8008H884.131V38.8655H880.547V31.5121L875.488 38.8655H872.109V25.8008Z" fill="#6B6B6B"/>
<path d="M886.953 25.8008H890.573V31.1022L895.072 25.8008H899.365L894.419 31.4183L899.533 38.8658H895.185L891.9 34.0138L890.573 35.4873V38.8662H886.953V25.8008Z" fill="#6B6B6B"/>
<path d="M899.555 32.3337C899.555 28.5811 902.577 25.5391 906.609 25.5391C910.641 25.5391 913.629 28.5445 913.629 32.3337C913.629 36.0856 910.603 39.128 906.573 39.128C902.54 39.1283 899.555 36.1218 899.555 32.3337ZM909.93 32.3337C909.93 30.448 908.57 28.8047 906.573 28.8047C904.593 28.8047 903.269 30.4101 903.269 32.3337C903.269 34.2193 904.63 35.8597 906.609 35.8597C908.606 35.8601 909.93 34.2562 909.93 32.3337Z" fill="#6B6B6B"/>
<path d="M929.812 25.8008H933.433V29.9057H935.412C938.548 29.9057 940.845 31.4002 940.845 34.3474C940.845 37.1678 938.791 38.8658 935.6 38.8658H929.812V25.8008ZM935.319 35.8238C936.513 35.8238 937.223 35.2822 937.223 34.2559C937.223 33.3415 936.513 32.7439 935.337 32.7439H933.433V35.8238H935.319Z" fill="#6B6B6B"/>
<path d="M916.84 25.8008V31.5322C916.84 32.8868 916.703 34.8462 915.809 35.5393C915.389 35.864 914.696 36.1129 914.258 36.1129V39.1931H914.601C915.853 39.1931 917.256 38.6897 917.795 38.3476C919.979 36.9611 920.249 34.3237 920.249 31.3445V28.9735H923.375V38.8652H926.996V25.8008H916.84Z" fill="#6B6B6B"/>
</g>
<g clip-path="url(#clip5_1321_1314)">
<path d="M1011.58 22.3203H1008.06L999.793 33.7249V22.3203H996V39.7249H999.61L1007.84 28.3203V39.7249H1011.58V22.3203Z" fill="#6B6B6B"/>
<path d="M1014.28 39.7249H1018.07V32.7173H1025.75V39.7249H1029.59V22.3203H1025.75V29.1906H1018.07V22.3203H1014.28V39.7249Z" fill="#6B6B6B"/>
<path d="M1036.17 25.7554H1044.16V22.3203H1032.33V39.7249H1036.17V25.7554Z" fill="#6B6B6B"/>
<path d="M1053.39 39.9542H1053.3C1048 39.9084 1044.16 36.2901 1044.16 30.9771C1044.16 25.6641 1048 22.0458 1053.3 22H1053.39C1058.7 22.0916 1062.53 25.7099 1062.53 31.0229C1062.53 36.3359 1058.7 39.9542 1053.39 39.9542ZM1058.56 31.0229C1058.56 27.6794 1056.41 25.5725 1053.35 25.5725C1050.29 25.5725 1048.14 27.6336 1048.14 31.0229C1048.14 34.4122 1050.29 36.4733 1053.35 36.4733C1056.41 36.4733 1058.56 34.4122 1058.56 31.0229Z" fill="#6B6B6B"/>
<path d="M1102.57 39.7249H1106.36V25.847H1111.98V22.3203H1096.95V25.847H1102.57V39.7249Z" fill="#6B6B6B"/>
<path d="M1114.27 22.3203V39.7249H1118.1V34.5036H1121.71C1125.64 34.5036 1128.75 32.3967 1128.75 28.3661C1128.75 24.7936 1126.24 22.3203 1122.08 22.3203H1114.27ZM1121.85 31.0226H1118.1V25.7096H1121.76C1123.68 25.7096 1124.87 26.6715 1124.87 28.3661C1124.87 29.9234 1123.77 31.0684 1121.85 31.0684V31.0226Z" fill="#6B6B6B"/>
<path d="M1158.41 39.7249L1154.48 34.0455L1150.5 39.7249H1146.12L1152.29 30.8852L1146.39 22.3203H1150.87L1154.57 27.6333L1158.27 22.3203H1162.71L1156.76 30.7936L1162.93 39.7249H1158.41Z" fill="#6B6B6B"/>
<path d="M1140.21 35.6951H1132.86L1131.21 39.7256H1127.33L1134.78 22.1836H1138.3L1145.74 39.7256H1141.86L1140.21 35.6951ZM1138.89 32.3058L1136.56 26.8554L1134.23 32.3058H1138.89Z" fill="#6B6B6B"/>
<path d="M1077.48 35.0535L1079.85 37.4352C1078.12 39.059 1075.83 39.9737 1073.46 40.0001H1073.37C1068.07 39.9543 1064.23 36.3359 1064.23 31.0229C1064.23 25.7099 1068.07 22.0916 1073.37 22.0458H1073.46C1074.64 22.0291 1075.81 22.2471 1076.91 22.6873C1078.01 23.1275 1079.01 23.7812 1079.85 24.6107L1077.48 26.9924C1076.34 26.0348 1074.9 25.5294 1073.41 25.5725C1070.35 25.5725 1068.2 27.6336 1068.2 31.0229C1068.2 34.4123 1070.35 36.4733 1073.41 36.4733C1074.9 36.5165 1076.34 36.0111 1077.48 35.0535Z" fill="#6B6B6B"/>
<path d="M1093.42 35.0535L1095.8 37.4352C1094.06 39.059 1091.78 39.9737 1089.4 40.0001H1089.31C1084.01 39.9543 1080.17 36.3359 1080.17 31.0229C1080.17 25.7099 1084.01 22.0916 1089.31 22.0458H1089.4C1090.59 22.0291 1091.76 22.2471 1092.86 22.6873C1093.96 23.1275 1094.96 23.7812 1095.8 24.6107L1093.42 26.9924C1092.29 26.0348 1090.84 25.5294 1089.36 25.5725C1086.3 25.5725 1084.15 27.6336 1084.15 31.0229C1084.15 34.4123 1086.3 36.4733 1089.36 36.4733C1090.84 36.5165 1092.29 36.0111 1093.42 35.0535Z" fill="#6B6B6B"/>
</g>
<defs>
<clipPath id="clip0_1321_1314">
<rect width="167.123" height="28" fill="white" transform="translate(152 24)"/>
</clipPath>
<clipPath id="clip1_1321_1314">
<rect width="78.9439" height="48" fill="white" transform="translate(375)"/>
</clipPath>
<clipPath id="clip2_1321_1314">
<rect width="79.6446" height="48.5" fill="white" transform="translate(509 4)"/>
</clipPath>
<clipPath id="clip3_1321_1314">
<rect width="48.2373" height="48" fill="white" transform="translate(644 5)"/>
</clipPath>
<clipPath id="clip4_1321_1314">
<rect width="194" height="28" fill="white" transform="translate(747 16)"/>
</clipPath>
<clipPath id="clip5_1321_1314">
<rect width="166.93" height="18" fill="white" transform="translate(996 22)"/>
</clipPath>
</defs>
</svg>
