<svg width="55" height="55" viewBox="0 0 55 55" fill="none" xmlns="http://www.w3.org/2000/svg">
<rect x="0.5" y="0.5" width="54" height="54" rx="27" stroke="#E8E8E8"/>
<path d="M35 18C35.5304 18 36.0391 18.2224 36.4142 18.6183C36.7893 19.0142 37 19.5512 37 20.1111V34.8889C37 35.4488 36.7893 35.9858 36.4142 36.3817C36.0391 36.7776 35.5304 37 35 37H21C20.4696 37 19.9609 36.7776 19.5858 36.3817C19.2107 35.9858 19 35.4488 19 34.8889V20.1111C19 19.5512 19.2107 19.0142 19.5858 18.6183C19.9609 18.2224 20.4696 18 21 18H35ZM34.5 34.3611V28.7667C34.5 27.854 34.1565 26.9788 33.5452 26.3334C32.9338 25.6881 32.1046 25.3256 31.24 25.3256C30.39 25.3256 29.4 25.8744 28.92 26.6978V25.5261H26.13V34.3611H28.92V29.1572C28.92 28.3444 29.54 27.6794 30.31 27.6794C30.6813 27.6794 31.0374 27.8351 31.2999 28.1123C31.5625 28.3894 31.71 28.7653 31.71 29.1572V34.3611H34.5ZM22.88 23.8689C23.3256 23.8689 23.7529 23.6821 24.0679 23.3495C24.383 23.0169 24.56 22.5659 24.56 22.0956C24.56 21.1139 23.81 20.3117 22.88 20.3117C22.4318 20.3117 22.0019 20.4996 21.685 20.8342C21.3681 21.1687 21.19 21.6224 21.19 22.0956C21.19 23.0772 21.95 23.8689 22.88 23.8689ZM24.27 34.3611V25.5261H21.5V34.3611H24.27Z" fill="#2D2D2D"/>
</svg>
