<svg width="58" height="35" viewBox="0 0 58 35" fill="none" xmlns="http://www.w3.org/2000/svg">
<g clip-path="url(#clip0_1321_1420)">
<path d="M5.15397 34.0094L8.64905 30.5069L7.47558 29.331L5.28483 31.5269L1.30432 27.5355L0 28.8463L5.15397 34.0094ZM6.59337 24.3448L7.47558 25.2257L9.28644 23.4049L10.3375 24.4586L8.52242 26.2795L9.64523 27.4006L11.8866 25.1541L12.9377 26.2078L9.39197 29.7651L4.23377 24.602L7.78372 21.0404L8.83478 22.0941L6.59337 24.3448ZM18.0706 21.0741L14.5628 20.0668C14.7582 19.6478 14.8164 19.178 14.7293 18.724C14.6422 18.2701 14.4141 17.8551 14.0774 17.5379C13.876 17.3502 13.639 17.2045 13.3804 17.1095C13.1218 17.0144 12.8468 16.972 12.5716 16.9845C12.2963 16.9971 12.0264 17.0644 11.7775 17.1826C11.5287 17.3008 11.3061 17.4675 11.1226 17.6728L8.50976 20.2902L13.6891 25.4576L14.9976 24.1468L10.8271 19.9656L11.6714 19.1227C11.7571 19.0333 11.8598 18.9618 11.9733 18.9121C12.0869 18.8625 12.2091 18.8357 12.333 18.8333C12.457 18.831 12.5802 18.8531 12.6955 18.8984C12.8109 18.9437 12.9161 19.0113 13.0052 19.0974C13.1803 19.278 13.2764 19.5206 13.2725 19.7719C13.2685 20.0232 13.1648 20.2627 12.9841 20.4377L12.2159 21.209L16.6734 22.4735L18.0706 21.0741ZM15.711 12.8721C17.3234 11.2578 19.4551 11.4138 20.962 12.9269C22.469 14.44 22.6294 16.5769 21.0169 18.1912C19.4044 19.8055 17.277 19.6495 15.7658 18.1238C14.2547 16.598 14.0985 14.4737 15.711 12.8594V12.8721ZM16.7325 13.9089C15.9136 14.7266 16.188 15.7255 17.1841 16.7244C18.1803 17.7234 19.1723 17.9889 19.9912 17.1754C20.8101 16.362 20.5357 15.3588 19.5395 14.3599C18.5433 13.361 17.5514 13.066 16.7325 13.9089ZM22.5154 10.1577L21.553 7.24108L23.081 5.71109L24.36 10.7141L26.3777 12.7372L25.0734 14.048L23.0641 12.0333L18.2816 10.5202L19.721 9.07874L22.4858 10.1535L22.5154 10.1577ZM46.3604 27.9612L51.5186 22.798L50.1426 21.4198L44.9886 26.5829L46.3604 27.9612ZM26.6394 8.19363L30.6495 6.27588L27.6863 9.24312L28.8808 10.4401L34.0306 5.27275L32.397 3.63318L28.5178 5.52985L30.4595 1.69015L28.7711 0L23.6171 5.16316L24.8075 6.36018L27.7707 3.39294L25.8585 7.40967L26.6394 8.19363ZM35.5755 8.92701L34.6933 9.80791L36.673 11.7889L35.6219 12.8426L33.6465 10.8616L32.5236 11.9828L34.9297 14.3936L33.8786 15.4473L30.164 11.7257L35.318 6.55827L39.0326 10.28L37.9815 11.3337L35.5755 8.92701ZM40.548 22.1405L44.043 25.6472L45.2207 24.4671L43.03 22.2754L47.0105 18.2839L45.7019 16.9773L40.548 22.1405ZM54.4354 25.7189L52.7807 31.1939H52.7765L56.3391 27.6282L57.5633 28.8547L52.4093 34.0179L50.7926 32.3994L52.2025 26.7557H52.2067L48.6863 30.2835L47.4959 29.0907L52.6457 23.9276L54.4354 25.7189ZM39.5729 21.1627L40.5649 17.6475C40.9843 17.8453 41.4559 17.9046 41.9113 17.8167C42.3667 17.7288 42.7822 17.4982 43.0975 17.1586C43.2837 16.9566 43.4281 16.72 43.5223 16.4621C43.6165 16.2043 43.6588 15.9304 43.6466 15.6562C43.6344 15.382 43.5681 15.1129 43.4514 14.8644C43.3347 14.6159 43.17 14.3929 42.9667 14.2082L40.1934 11.4264L35.0352 16.6064L36.3437 17.9172L40.5226 13.7361L41.5146 14.7519C41.6011 14.838 41.6697 14.9402 41.7166 15.0528C41.7635 15.1653 41.7878 15.286 41.788 15.4079C41.7882 15.5298 41.7643 15.6506 41.7178 15.7633C41.6712 15.876 41.6029 15.9785 41.5167 16.0648C41.4305 16.1512 41.3281 16.2197 41.2154 16.2665C41.1027 16.3134 40.9818 16.3376 40.8597 16.3378C40.7376 16.338 40.6167 16.3142 40.5038 16.2677C40.3909 16.2212 40.2883 16.153 40.2018 16.0669L39.2563 15.127L38.1588 19.7633L39.5729 21.1627Z" fill="#251B00"/>
<path d="M6.13281 35.0002H51.438L28.7833 12.2949L6.13281 35.0002Z" fill="#66C05D"/>
</g>
<defs>
<clipPath id="clip0_1321_1420">
<rect width="57.5633" height="35" fill="white"/>
</clipPath>
</defs>
</svg>
