<svg width="57" height="35" viewBox="0 0 57 35" fill="none" xmlns="http://www.w3.org/2000/svg">
<g clip-path="url(#clip0_1321_1412)">
<path d="M38.2405 18.5727C38.1256 18.4569 38.0108 18.3411 37.8236 18.2682C37.6705 18.1909 37.445 18.1523 37.2153 18.1523H36.4922V21.0261H37.3642C37.5173 21.0261 37.6279 20.9875 37.7811 20.9489C37.9342 20.9103 38.0448 20.8331 38.1597 20.7173C38.2745 20.6015 38.3511 20.4514 38.4234 20.2969C38.5 20.1039 38.5 19.9152 38.5 19.645C38.5 19.4134 38.4617 19.2246 38.4234 19.0316C38.4319 18.8772 38.3553 18.6885 38.2405 18.5727Z" fill="#00B0A4"/>
<path d="M48.6457 17.5C48.6457 19.8376 50.5046 21.712 52.8228 21.712C55.1411 21.712 57 19.8376 57 17.5C57 15.1624 55.1411 13.288 52.8228 13.288C52.2146 13.288 51.6446 13.4038 51.1511 13.6311C51.0363 13.6697 50.8874 13.7083 50.7343 13.7083C50.2025 13.7083 49.7857 13.2494 49.7857 12.7132C49.7857 12.5202 49.824 12.3701 49.9388 12.2157C50.4322 11.4136 50.7343 10.4528 50.7343 9.41912C50.7343 6.51103 48.416 4.17341 45.5319 4.17341C42.6479 4.17341 40.3296 6.51103 40.3296 9.41912C40.3296 10.4914 40.6316 11.4479 41.1634 12.2929C41.2782 12.4473 41.3165 12.6746 41.3165 12.9062C41.3165 13.5196 40.8231 13.9786 40.2148 13.9786C40.0616 13.9786 39.9128 13.9399 39.7596 13.8627C38.9642 13.5196 38.0879 13.288 37.1776 13.288C36.1907 13.288 35.2804 13.5196 34.4425 13.9399C34.251 14.0172 34.0639 14.0558 33.8725 14.0558C33.111 14.0558 32.507 13.4424 32.507 12.6789C32.507 12.4473 32.5836 12.22 32.6601 12.027C33.345 10.8388 33.7236 9.50061 33.7236 8.04657C33.7236 3.59865 30.1504 0 25.7478 0C21.3452 0 17.7721 3.59865 17.7721 8.04228C17.7721 9.38051 18.0741 10.6458 18.6441 11.7181C18.759 11.9498 18.8355 12.2157 18.8738 12.4859C18.9887 13.6354 18.1124 14.6691 16.9766 14.7463C16.5598 14.7849 16.1429 14.6691 15.7984 14.5147C14.3181 13.7469 12.6081 13.288 10.8257 13.288C4.82373 13.288 0 18.152 0 24.1612C0 30.1703 4.82373 35 10.7832 35C16.7427 35 21.5281 30.136 21.5281 24.1654C21.5281 22.098 20.9581 20.1464 19.933 18.4994C19.7799 18.2335 19.6693 17.9246 19.631 17.6201C19.5161 16.4706 20.3541 15.4369 21.4898 15.3211C21.8684 15.2825 22.213 15.3597 22.515 15.4755C23.5019 15.8958 24.5653 16.1274 25.667 16.1274C27.109 16.1274 28.4404 15.7457 29.6145 15.0551C29.8059 14.9393 30.0313 14.9007 30.261 14.9007C31.0225 14.9007 31.6265 15.5141 31.6265 16.2776C31.6265 16.5092 31.5882 16.6979 31.4734 16.8523C31.0565 17.693 30.8268 18.6152 30.8268 19.6103C30.8268 23.0931 33.6385 25.9283 37.0925 25.9283C40.5466 25.9283 43.3583 23.0931 43.3583 19.6103C43.3583 18.2335 42.9414 16.9681 42.18 15.9344C42.0652 15.7414 41.9886 15.5527 41.9886 15.3211C41.9886 14.7077 42.482 14.2488 43.0903 14.2488C43.2434 14.2488 43.354 14.2874 43.4689 14.326C44.0772 14.5919 44.7237 14.7077 45.4426 14.7077C46.3146 14.7077 47.1143 14.4761 47.8332 14.133C47.9863 14.0558 48.1352 14.0558 48.2884 14.0558C48.8201 14.0944 49.2369 14.5533 49.1987 15.0895C49.1987 15.2439 49.1604 15.3554 49.0838 15.4712C48.8371 16.046 48.6457 16.7322 48.6457 17.5ZM51.6063 16.0074H52.2146V17.9589L53.4311 16.0074H54.0777V18.9154H53.4694V16.9638L52.2528 18.9154H51.6063V16.0074ZM14.6201 27.9528H13.1398V22.7457H13.1015L10.7492 26.0398L8.39687 22.7843V27.9142H6.91657V20.6397H8.62657L10.7534 23.7794L12.8803 20.6397H14.5903V27.9528H14.6201ZM27.8364 10.723H23.621V5.1299H27.7598V6.1636H24.8375V7.35171H27.5344V8.30821H24.8375V9.68505H27.8364V10.723ZM39.381 20.4853C39.3045 20.7512 39.1513 21.0214 39.0025 21.2145C38.811 21.4075 38.6239 21.5962 38.3559 21.712C38.0922 21.8278 37.7859 21.905 37.4456 21.905H35.5101V17.307H37.4456C37.7476 17.307 38.0156 17.3456 38.241 17.4614C38.5048 17.5386 38.6962 17.693 38.8876 17.8817C39.079 18.0748 39.2279 18.3021 39.3045 18.5723C39.4193 18.8382 39.4576 19.1857 39.4576 19.5674C39.5299 19.9105 39.4916 20.2194 39.381 20.4853ZM47.0122 10.4528C46.9357 10.6458 46.8208 10.796 46.7102 10.9118C46.5571 11.0276 46.4082 11.1434 46.2551 11.1777C46.0637 11.2549 45.8765 11.2935 45.6468 11.2935C45.3831 11.2935 45.1534 11.2549 44.9237 11.1391C44.694 11.0619 44.5451 10.9075 44.3919 10.7574C44.2388 10.6029 44.1282 10.4142 44.0516 10.1826C43.9751 9.95098 43.9368 9.72365 43.9368 9.45343C43.9368 9.1875 43.9751 8.95588 44.0516 8.72426C44.1282 8.49265 44.2431 8.30392 44.3919 8.14951C44.5451 7.9951 44.7322 7.84497 44.9237 7.76777C45.1534 7.69056 45.3788 7.61336 45.6468 7.61336C45.8382 7.61336 46.0254 7.65196 46.1785 7.69056C46.3316 7.76777 46.4805 7.84497 46.6337 7.92218C46.7868 8.03799 46.8974 8.1538 46.974 8.30392C47.0505 8.45833 47.1271 8.64706 47.1271 8.84007H46.3657C46.3657 8.76287 46.3274 8.68566 46.2891 8.60845C46.2508 8.53125 46.1743 8.45404 46.0977 8.41544C46.0211 8.37684 45.9446 8.29963 45.868 8.29963C45.7914 8.26103 45.6766 8.26103 45.6043 8.26103C45.4128 8.26103 45.3022 8.29963 45.1491 8.37684C45.0343 8.45404 44.9194 8.53125 44.8471 8.64277C44.7705 8.75858 44.7322 8.87439 44.694 9.02451C44.6557 9.17892 44.6557 9.32904 44.6557 9.48346C44.6557 9.63787 44.6557 9.78799 44.694 9.9038C44.7322 10.0582 44.7705 10.1697 44.8471 10.2855C44.9237 10.4013 45.0385 10.4786 45.1491 10.5515C45.2597 10.6244 45.4128 10.6673 45.6043 10.6673C45.834 10.6673 46.0211 10.5901 46.1743 10.4357C46.3274 10.2812 46.404 10.0925 46.404 9.86091H47.1654C47.1271 10.0711 47.0888 10.2984 47.0122 10.4528Z" fill="#00B0A4"/>
</g>
<defs>
<clipPath id="clip0_1321_1412">
<rect width="57" height="35" fill="white"/>
</clipPath>
</defs>
</svg>
