<svg width="760" height="547" viewBox="0 0 760 547" fill="none" xmlns="http://www.w3.org/2000/svg">
<rect width="760" height="547" rx="30" fill="#E4E4E4"/>
<ellipse cx="145.674" cy="213.5" rx="58.6736" ry="59.5" fill="#D9D9D9"/>
<ellipse cx="263.017" cy="213.5" rx="58.6736" ry="59.5" fill="#D9D9D9"/>
<ellipse cx="380.369" cy="213.5" rx="58.6736" ry="59.5" fill="#D9D9D9"/>
<ellipse cx="497.713" cy="213.5" rx="58.6736" ry="59.5" fill="#D9D9D9"/>
<ellipse cx="615.064" cy="213.5" rx="58.6736" ry="59.5" fill="#F65700"/>
<path d="M131.8 220V206H143.34V220H140.86V208.24H134.26V220H131.8ZM146.917 220V206H149.377V211.82H156.057V206H158.517V220H156.057V214.1H149.377V220H146.917Z" fill="black"/>
<path d="M250.8 220V206H257.08C258.693 206 259.913 206.413 260.74 207.24C261.367 207.867 261.68 208.64 261.68 209.56V209.6C261.68 210.987 261.013 212.027 259.68 212.72C260.587 213.04 261.273 213.46 261.74 213.98C262.22 214.5 262.46 215.213 262.46 216.12V216.16C262.46 217.387 261.993 218.333 261.06 219C260.127 219.667 258.867 220 257.28 220H250.8ZM259.22 210V209.96C259.22 209.4 259.007 208.967 258.58 208.66C258.167 208.34 257.56 208.18 256.76 208.18H253.22V211.9H256.58C257.407 211.9 258.053 211.74 258.52 211.42C258.987 211.1 259.22 210.627 259.22 210ZM260 215.9V215.86C260 214.607 259.04 213.98 257.12 213.98H253.22V217.82H257.3C258.153 217.82 258.813 217.66 259.28 217.34C259.76 217.007 260 216.527 260 215.9ZM268.439 220V208.28H263.979V206H275.359V208.28H270.899V220H268.439Z" fill="black"/>
<path d="M373.3 220.24C371.273 220.24 369.58 219.547 368.22 218.16C366.86 216.773 366.18 215.067 366.18 213.04V213C366.18 210.973 366.86 209.26 368.22 207.86C369.58 206.46 371.3 205.76 373.38 205.76C374.593 205.76 375.627 205.947 376.48 206.32C377.333 206.693 378.133 207.233 378.88 207.94L377.3 209.76C376.047 208.613 374.733 208.04 373.36 208.04C372.053 208.04 370.96 208.52 370.08 209.48C369.2 210.427 368.76 211.587 368.76 212.96V213C368.76 214.387 369.2 215.56 370.08 216.52C370.96 217.48 372.06 217.96 373.38 217.96C374.18 217.96 374.887 217.813 375.5 217.52C376.113 217.227 376.747 216.773 377.4 216.16L378.98 217.76C378.22 218.573 377.393 219.193 376.5 219.62C375.607 220.033 374.54 220.24 373.3 220.24ZM381.585 220V206H387.105C388.732 206 390.025 206.427 390.985 207.28C391.945 208.133 392.425 209.267 392.425 210.68V210.72C392.425 212.227 391.892 213.4 390.825 214.24C389.772 215.08 388.438 215.5 386.825 215.5H384.045V220H381.585ZM384.045 213.28H386.905C387.825 213.28 388.558 213.047 389.105 212.58C389.652 212.113 389.925 211.513 389.925 210.78V210.74C389.925 209.927 389.658 209.307 389.125 208.88C388.592 208.453 387.852 208.24 386.905 208.24H384.045V213.28Z" fill="black"/>
<path d="M493.9 220V215.08C492.807 215.36 491.72 215.5 490.64 215.5C488.973 215.5 487.68 215.107 486.76 214.32C485.84 213.533 485.38 212.327 485.38 210.7V206H487.84V210.4C487.84 211.4 488.087 212.127 488.58 212.58C489.073 213.033 489.847 213.26 490.9 213.26C491.967 213.26 492.967 213.113 493.9 212.82V206H496.38V220H493.9ZM503.4 220V208.28H498.94V206H510.32V208.28H505.86V220H503.4Z" fill="black"/>
<path d="M601.8 220V206H613.34V220H610.86V208.24H604.26V220H601.8ZM620.337 220V208.28H615.877V206H627.257V208.28H622.797V220H620.337Z" fill="black"/>
</svg>
