<svg width="134" height="26" viewBox="0 0 134 26" fill="none" xmlns="http://www.w3.org/2000/svg">
<g clip-path="url(#clip0_1321_1391)">
<path d="M10.8051 0.657227C16.2445 0.657227 21.646 2.21197 21.646 9.39976C21.646 15.0663 17.6355 17.6589 12.3058 17.6589H7.56291V25.261H0V0.657227H10.8051ZM7.56291 11.9212H11.223C13.072 11.9212 14.3617 11.3353 14.3617 9.3307C14.3617 7.56881 13.3063 6.7046 11.0837 6.7046H7.56291V11.9212Z" fill="#EA1F27"/>
<path d="M48.9715 12.9589C48.9715 20.6657 43.9521 25.8488 36.4926 25.8488C28.8938 25.8488 23.8047 20.6992 23.8047 12.9255C23.8047 5.11411 28.8579 0 36.5622 0C43.9879 0 48.9715 5.21873 48.9715 12.9589ZM31.5428 12.8208C31.5428 17.2151 33.356 19.7261 36.4926 19.7261C39.5954 19.7261 41.2693 17.2737 41.2693 12.6116C41.2693 8.4998 39.4899 6.04528 36.4588 6.04528C33.3897 6.04528 31.5428 8.60233 31.5428 12.8187" fill="#EA1F27"/>
<path d="M74.2768 0.657227V25.261H66.7139V6.97872H62.1483V8.44348C62.1483 15.4241 62.3214 25.7214 53.4941 25.7214C52.4563 25.7366 51.4256 25.5489 50.4609 25.1689V19.3246C50.9196 19.5758 51.4356 19.7062 51.9596 19.7033C54.539 19.7033 54.6445 15.2462 54.6445 11.237V0.657227H74.2768Z" fill="#EA1F27"/>
<path d="M87.3488 8.32839H91.5703C98.3248 8.32839 101.366 11.4672 101.366 16.621C101.366 21.9423 97.9153 25.261 91.1186 25.261H79.75V0.657227H87.3488V8.32839ZM87.3488 19.3873H90.8337C92.4716 19.3873 93.9724 18.8328 93.9724 16.6922C93.9724 14.5829 92.6827 13.9259 90.8696 13.9259H87.3488V19.3873Z" fill="#EA1F27"/>
<path d="M122.072 22.8818V25.2652H114.614V22.8818C107.607 22.8818 103.25 18.6298 103.25 12.8608C103.25 8.25724 106.456 3.11593 114.614 3.11593V0.657227H122.072V3.11175C129.289 3.11175 133.333 7.50603 133.333 12.7875C133.333 18.5922 129.358 22.8776 122.072 22.8776V22.8818ZM114.788 8.44348C111.754 8.44348 110.849 11.034 110.849 12.8671C110.849 15.0433 111.79 17.5313 114.788 17.5313V8.44348ZM121.899 8.44348V17.4957C125.141 17.4957 125.732 14.5662 125.732 12.8671C125.732 11.2077 125.002 8.44348 121.899 8.44348Z" fill="#EA1F27"/>
</g>
<defs>
<clipPath id="clip0_1321_1391">
<rect width="133.333" height="25.8488" fill="white"/>
</clipPath>
</defs>
</svg>
