<svg width="75" height="17" viewBox="0 0 75 17" fill="none" xmlns="http://www.w3.org/2000/svg">
<path d="M5.38171 16.2151V2.87012H0V0.273438H13.7507V2.87012H8.35734V16.2261H5.38171V16.2151Z" fill="#2D2D2D"/>
<path d="M12.0391 16.2145L19.4781 0.152344H22.2329L29.672 16.2145H26.5336L24.825 12.3578H16.828L15.0844 16.2145H12.0391ZM17.8973 9.88168H23.7207L20.8032 3.50502L17.8973 9.88168Z" fill="#2D2D2D"/>
<path d="M38.3305 16.4895C35.7152 16.4895 33.6113 15.7116 31.984 14.1558C30.3567 12.5999 29.5547 10.6497 29.5547 8.29405V8.25023C29.5547 5.97128 30.38 4.02103 32.0305 2.42138C33.681 0.810783 35.7617 0 38.2724 0C39.6672 0 40.876 0.175306 41.8873 0.53687C42.8869 0.898433 43.8517 1.4353 44.7699 2.16939L42.8869 4.28398C42.1779 3.7252 41.4688 3.2979 40.7365 3.01303C40.0159 2.73912 39.1441 2.59668 38.1445 2.59668C36.6102 2.59668 35.3083 3.14451 34.2622 4.25112C33.1929 5.34676 32.6582 6.67249 32.6582 8.19544V8.23927C32.6582 9.89369 33.1929 11.2523 34.2622 12.337C35.3316 13.3998 36.7148 13.9366 38.4118 13.9366C39.981 13.9366 41.3526 13.5312 42.5033 12.7314V9.77317H38.191V7.30797H45.386V14.0133C43.3053 15.6678 40.9574 16.4895 38.3305 16.4895Z" fill="#2D2D2D"/>
<path d="M48.0391 16.2151V0.273438H60.5809V2.77152H51.0031V6.91306H59.4882V9.43305H51.0031V13.6951H60.6855V16.1932H48.0391V16.2151Z" fill="#2D2D2D"/>
<path d="M68.9539 16.4464C66.2456 16.4464 63.8861 15.5918 61.8984 13.8936L63.6885 11.8885C65.3739 13.28 67.1523 13.9593 69.0353 13.9593C69.9536 13.9593 70.6858 13.773 71.2205 13.4005C71.7668 13.028 72.0342 12.5459 72.0342 11.9543V11.9104C72.0342 11.3188 71.7668 10.8477 71.2438 10.4861C70.7207 10.1245 69.7095 9.79584 68.21 9.46714C66.2573 9.03984 64.8276 8.48106 63.9326 7.80176C63.0259 7.12246 62.5726 6.09255 62.5726 4.70108V4.6463C62.5726 3.27674 63.1189 2.17014 64.1999 1.30458C65.2809 0.439019 66.6641 0.0117188 68.3495 0.0117188C70.651 0.0117188 72.7083 0.680061 74.4984 2.01675L72.8943 4.16421C71.3251 3.07952 69.7792 2.52074 68.303 2.52074C67.4545 2.52074 66.7803 2.69605 66.2805 3.05761C65.7807 3.41918 65.5482 3.86839 65.5482 4.40526V4.44908C65.5482 5.0736 65.8156 5.54473 66.3619 5.89534C66.9082 6.24594 67.9776 6.58559 69.5816 6.95811C71.4646 7.41828 72.8478 7.98802 73.708 8.67828C74.5681 9.36853 74.9982 10.3546 74.9982 11.6365V11.6803C74.9982 13.1485 74.4403 14.3099 73.336 15.1645C72.2202 16.0191 70.7556 16.4464 68.9539 16.4464Z" fill="#2D2D2D"/>
</svg>
