<svg width="248" height="63" viewBox="0 0 248 63" fill="none" xmlns="http://www.w3.org/2000/svg">
<path d="M25.5837 0.528042C23.7582 1.08887 22.9555 1.44077 22.3507 1.96861C21.9768 2.3095 21.405 3.2772 21.405 3.6071C21.405 3.70607 20.8991 4.10195 20.2833 4.49783C19.6675 4.89371 19.0187 5.31158 18.8317 5.43255L18.4909 5.65248L18.8427 5.21262C19.0407 4.97069 19.3706 4.39886 19.5685 3.948C19.9534 3.12325 20.5912 0.901932 20.4812 0.791965C20.3933 0.703991 18.5788 1.88063 17.7651 2.55143C16.8853 3.27721 15.9836 4.44285 15.6757 5.2676C15.4228 5.9274 15.3568 7.15902 15.5547 7.52191C15.6537 7.70885 15.5547 7.84081 14.785 8.51161C14.3011 8.92948 13.6303 9.57828 13.3004 9.94117L12.6956 10.601L12.9925 10.0182C13.5314 8.92948 13.7293 7.9068 13.7293 6.2573C13.7293 5.44355 13.6853 4.56381 13.6303 4.29989L13.5424 3.82704L12.6186 5.01467C11.453 6.51022 10.8152 7.48892 10.5073 8.24769C10.1774 9.07244 10.0784 11.1178 10.3423 12.0085C10.4413 12.3604 10.5733 12.6354 10.6282 12.6354C10.6832 12.6354 10.9142 12.4704 11.1451 12.2725L11.563 11.9206L11.1891 12.4154C10.5403 13.2842 9.29765 15.1976 9.02274 15.7364C8.71483 16.3522 8.62686 16.4072 8.76981 15.9124C8.8248 15.7144 8.86878 15.0216 8.86878 14.3838C8.86878 13.1302 8.74782 12.5254 8.04403 10.2821L7.63716 8.99546L7.15331 10.458C6.20759 13.3061 6.06464 13.9769 6.06464 15.4945V16.8691L6.58148 17.9467C6.86739 18.5296 7.14231 19.0134 7.19729 19.0134C7.24128 19.0134 7.34025 18.9584 7.40623 18.8924C7.47221 18.8265 7.36224 19.1784 7.1643 19.6952C6.96636 20.201 6.65846 21.0698 6.49351 21.6306L6.1856 22.6533L6.00965 21.9055C5.71274 20.6629 5.16291 19.4753 4.2172 18.0017C3.72235 17.2319 3.28249 16.5941 3.2385 16.5941C2.98558 16.5941 2.8976 22.3234 3.13953 23.3021C3.49142 24.7097 4.23919 25.7873 5.15192 26.1832C5.38284 26.2932 5.45982 26.3812 5.41583 26.5461C5.38284 26.6671 5.33886 27.3049 5.29487 27.9757C5.26188 28.6355 5.2069 29.4492 5.17391 29.7681L5.10793 30.351L4.5361 29.3722C3.72235 27.9977 3.02956 27.052 2.41375 26.4801C1.78694 25.8973 0.632293 25.0176 0.577309 25.0726C0.47834 25.1715 1.39106 29.4602 1.66598 30.23C2.02887 31.2417 2.5677 32.2204 3.09554 32.8362C3.49142 33.2981 4.76703 34.2108 5.1959 34.3427C5.38284 34.3977 5.44882 34.5627 5.55879 35.3214C5.70175 36.2232 6.03165 37.7957 6.1856 38.2026C6.22959 38.3235 5.97666 38.1036 5.62477 37.7187C5.15192 37.2019 4.33816 36.597 2.51272 35.3874C1.14914 34.4747 0.027477 33.7599 0.00548372 33.7819C-0.137473 33.9249 2.55671 39.0823 3.17252 39.8521C4.19521 41.1387 6.05364 42.3043 7.32925 42.4583C7.56018 42.4913 7.73613 42.7442 8.43991 44.1078C8.90177 44.9875 9.39662 45.8782 9.53958 46.0872L9.8035 46.45L9.52858 46.2521C7.92307 45.1304 6.31756 44.3497 4.73404 43.9318C4.11823 43.7779 3.32647 43.5469 2.98558 43.426C2.63368 43.305 2.32578 43.206 2.30378 43.206C2.13883 43.206 2.45774 43.6679 3.60139 45.0865C4.89899 46.692 5.99866 47.7586 7.24128 48.6054C8.32995 49.3532 10.3423 49.881 11.453 49.7161L12.0028 49.6281L13.4324 51.0796C14.2242 51.8714 15.1149 52.7291 15.4118 52.9821L15.9616 53.4329L14.9059 52.8831C13.9492 52.3882 13.7183 52.3113 12.4317 52.1133C10.5623 51.8384 7.92307 51.5635 7.02135 51.5635H6.29557L7.74712 52.6412C10.0784 54.3676 11.2441 54.9944 13.2125 55.5333C14.3781 55.8522 16.3905 55.7972 17.3692 55.4233C17.7651 55.2694 17.996 55.1154 17.963 55.0384C17.93 54.9615 18.5238 55.2694 19.2716 55.7202C20.0194 56.1711 21.1191 56.7539 21.7019 57.0178L22.7795 57.5017L21.8448 57.4357C21.328 57.4027 20.8221 57.3587 20.7012 57.3367C20.1184 57.2158 15.7527 57.8536 13.0475 58.4474C12.6626 58.5354 12.8166 58.6013 14.862 59.2062C17.3802 59.9539 18.3699 60.1409 19.8984 60.1409C22.0648 60.1409 23.5163 59.712 24.561 58.7663L25.0668 58.3154L25.9576 58.5684C26.4524 58.7113 27.2992 58.9092 27.86 59.0082L28.8717 59.1952L27.904 59.5031C27.3761 59.668 25.5837 60.4928 23.9232 61.3175L20.9101 62.8351L21.8448 62.868C23.0105 62.912 25.4627 62.7141 26.4964 62.4942C28.6957 62.0323 30.2683 61.2955 31.3129 60.2398L32.0607 59.4811H33.0064H33.9521L34.9528 60.3718C35.5027 60.8557 36.1295 61.3395 36.3494 61.4495C36.8223 61.6914 38.6697 62.2962 39.6264 62.5161C40.1543 62.6371 44.124 62.989 45.0258 63C45.5316 63 44.7069 62.4502 43.3213 61.8673C42.8484 61.6584 42.0237 61.2405 41.4848 60.9326C40.4622 60.3388 39.0106 59.734 37.801 59.4041L37.0972 59.2062L38.6807 58.8543C39.5494 58.6563 40.4951 58.4254 40.7811 58.3374C41.1879 58.2055 41.2869 58.2055 41.2429 58.3154C41.111 58.6563 42.7934 59.657 44.0361 59.9759C44.9048 60.2069 47.522 60.2069 48.5227 59.9759C49.8093 59.69 52.8664 58.6783 52.8224 58.5574C52.7674 58.4034 52.4265 58.3154 50.1062 57.8976C46.4333 57.2158 44.9488 57.1718 43.0464 57.6666C42.7385 57.7546 42.4635 57.8096 42.4416 57.7986C42.4306 57.7766 42.9474 57.5457 43.5962 57.2817C44.8498 56.7539 46.9612 55.5883 48.1048 54.7965C48.7536 54.3456 48.7756 54.3346 48.5447 54.6535C48.2258 55.0824 48.3468 55.2804 49.1275 55.5553C49.8533 55.8082 51.6238 55.8522 52.5255 55.6432C54.12 55.2694 55.1647 54.7745 57.364 53.3449C59.0575 52.2453 59.6403 51.7724 59.4204 51.6625C59.2774 51.5745 55.7915 51.7834 54.6148 51.9484C52.6244 52.2233 50.92 52.8501 49.5564 53.8068C49.2925 53.9937 49.7653 53.5649 50.777 52.6961C51.7117 51.9044 52.7014 50.9147 53.6581 49.804C53.944 49.4741 54.153 49.2872 54.12 49.3862C54.065 49.5291 54.12 49.5951 54.3619 49.6391C54.5269 49.6831 54.7358 49.738 54.8128 49.76C55.0327 49.826 56.4513 49.5951 57.0891 49.3971C58.8815 48.8363 61.0259 47.1648 62.2685 45.3614C62.6094 44.8775 63.1702 44.2067 63.5001 43.8878C64.05 43.371 64.083 43.316 63.841 43.316C63.3132 43.316 60.3771 44.1847 59.4534 44.6136C58.3647 45.1085 56.8142 46.0872 56.1544 46.681L55.6925 47.0988L56.1764 46.3841C56.4293 45.9992 57.0231 44.9325 57.485 44.0198C58.1448 42.7222 58.3647 42.3813 58.4857 42.4473C58.8705 42.6672 60.8939 41.7545 61.8946 40.9297C62.6974 40.2589 63.1262 39.6981 63.918 38.2575C64.5998 37.0259 65.7544 34.6396 65.8864 34.1998L65.9634 33.9359L65.4355 34.2438C64.1159 34.9915 61.4218 36.85 60.795 37.4328C60.4101 37.7847 59.9812 38.2905 59.8273 38.5545C59.6733 38.8074 59.5303 39.0273 59.5084 39.0273C59.4864 39.0273 59.5633 38.7194 59.6843 38.3345C59.9042 37.5867 60.4431 34.9585 60.4431 34.6177C60.4431 34.4967 60.52 34.4087 60.619 34.4087C61.0039 34.4087 62.1805 33.6719 62.8073 33.0341C63.852 31.9785 64.5668 30.4059 64.9957 28.1406C65.0947 27.6238 65.2816 26.7221 65.4136 26.1282C65.5455 25.5454 65.6225 25.0286 65.5785 24.9956C65.4575 24.8746 64.5998 25.6554 63.3902 26.986C62.0486 28.4595 61.3888 29.3942 60.9489 30.4499C60.784 30.8458 60.674 31.0217 60.696 30.8458C60.751 30.5049 60.597 27.3269 60.4981 26.7111C60.4431 26.3592 60.4541 26.3262 60.718 26.3152C61.1469 26.2822 61.9716 25.5234 62.3785 24.7866C62.9723 23.72 63.1372 22.8402 63.1372 20.8279C63.1372 18.2986 62.9943 16.4182 62.8073 16.6051C62.5654 16.8691 61.1029 19.3543 60.663 20.278C60.1682 21.2897 59.9372 22.4664 60.0472 23.4341C60.0802 23.786 60.0912 24.0719 60.0692 24.0719C60.0472 24.0719 59.9372 23.687 59.8383 23.2141C59.5963 22.0925 58.7936 19.7172 58.3097 18.6505C57.8808 17.7048 57.8699 17.5069 58.2987 18.3536C58.4527 18.6505 58.6396 18.9034 58.7166 18.9034C59.3434 18.9034 60.3221 16.3192 60.1791 15.0656C60.0362 13.834 58.7826 9.55629 58.5736 9.55629C58.4087 9.55629 57.9688 10.491 57.6389 11.5357C57.375 12.3934 57.342 12.6353 57.331 14.3948C57.32 15.7254 57.364 16.4182 57.463 16.6491C57.6719 17.155 57.54 16.946 57.0891 16.0993C55.7695 13.6031 53.1743 10.2931 51.1289 8.51161C50.4141 7.8958 50.2712 7.71985 50.4031 7.63187C50.6341 7.46693 50.711 6.29029 50.5461 5.5975C50.2382 4.32189 48.3028 2.28751 46.2684 1.08887L45.6746 0.747978L45.7405 1.27581C45.8175 1.95761 46.4333 3.89302 46.7302 4.38787C46.8512 4.5968 47.1151 4.97069 47.3021 5.21262C47.8519 5.9164 47.8409 5.93839 47.1151 5.49853C46.7302 5.2676 46.0594 4.89371 45.6306 4.66278C45.1137 4.39886 44.8278 4.17893 44.8278 4.06897C44.8278 3.59611 44.4319 2.79335 43.9371 2.25452C43.2553 1.50675 42.4855 1.09986 40.7041 0.561031C38.9446 0.0221939 38.5597 -0.0657768 38.5597 0.077179C38.5597 0.264122 39.8134 1.90262 40.5721 2.69438C41.4409 3.60711 42.2546 4.12395 43.2773 4.38787C43.8051 4.53082 44.322 4.78374 44.9048 5.16863C46.4443 6.20231 46.4223 6.14733 45.3337 6.07035C44.0801 5.98238 42.2216 6.36726 40.6271 7.04905C39.7144 7.43394 39.7694 7.45593 42.7605 7.79683C44.8718 8.03875 47.2031 8.08274 48.1268 7.9068L48.7096 7.79683L49.6554 8.58859C50.1722 9.01746 50.6451 9.40234 50.689 9.44632C50.733 9.49031 50.4141 9.42433 49.9743 9.30337C49.4244 9.16041 48.6437 9.07244 47.522 9.03945C45.9165 8.98447 45.1687 9.06144 45.1467 9.28137C45.1247 9.41333 48.3907 10.9199 49.7763 11.4257C50.7 11.7666 51.3048 11.8986 52.5585 12.0305L53.1853 12.0965L53.8781 12.9982C54.2629 13.4931 54.6918 14.0759 54.8458 14.2849L55.1097 14.6697L54.7798 14.4388C54.12 13.9659 52.8444 13.4051 51.6238 13.0422C50.2822 12.6354 49.4464 12.4704 49.4464 12.6134C49.4464 12.7893 51.4258 14.5048 53.3942 16.0333C54.4389 16.8581 56.0884 17.8148 56.7152 17.9687C56.9571 18.0237 57.0781 18.2107 57.419 19.0464C57.6499 19.6072 57.9138 20.311 58.0238 20.6079L58.2107 21.1688L57.32 20.278C56.3963 19.3763 55.3846 18.7055 53.8121 17.9577C53.3502 17.7378 52.9214 17.5838 52.8554 17.6058C52.8004 17.6168 53.1303 18.1117 53.6031 18.6945C54.065 19.2883 54.8018 20.344 55.2197 21.0478C55.7915 22.0045 56.2313 22.5653 56.9241 23.2581C57.7819 24.1049 58.8486 24.9846 59.1235 25.0836C59.2774 25.1275 59.5413 26.777 59.6073 28.1736C59.6733 29.2293 59.6623 29.2733 59.5303 28.8004C59.1565 27.5578 58.7936 27.041 56.9901 25.1935C56.0224 24.2148 55.2197 23.4231 55.1977 23.4451C55.1427 23.511 56.1324 26.744 56.5942 27.9757C57.353 29.9881 58.1888 31.4396 59.2444 32.5943L59.6513 33.0341L59.5084 34.1338C59.2884 35.7613 59.1125 36.718 59.0135 36.718C58.9695 36.718 58.9035 36.4211 58.8705 36.0582C58.7496 34.9805 57.9468 33.309 56.4953 31.1097L55.8795 30.175L55.8465 30.7248C55.7915 31.4506 56.0224 35.0245 56.2094 36.5091C56.3853 37.8507 56.8252 39.1043 57.463 40.105L57.8918 40.7648L57.43 41.8424C56.9791 42.8871 56.1764 44.5256 56.1214 44.5256C56.1104 44.5256 56.0994 43.7449 56.0994 42.7882C56.0884 41.3146 56.0444 40.8857 55.8025 39.8521C55.6375 39.1813 55.4066 38.3565 55.2746 38.0156C54.9008 37.0039 54.6918 37.0369 54.5819 38.1256C54.5379 38.4775 54.2739 39.7641 53.999 41.0067C53.5262 43.0521 53.4712 43.393 53.4712 44.6906C53.4602 45.9552 53.4932 46.2081 53.7461 46.9339L54.032 47.7367L53.4052 48.5284C53.0533 48.9573 52.5475 49.5511 52.2726 49.859L51.7777 50.4088L51.9317 49.815C52.1956 48.7813 52.3275 46.9669 52.2506 45.4494C52.2066 44.6576 52.1406 43.9538 52.0966 43.8878C52.0526 43.8108 51.6897 44.3717 51.2719 45.1634C50.854 45.9332 50.2602 46.9779 49.9413 47.4947C48.9846 49.0892 48.7426 49.892 48.6107 51.9814L48.5337 53.235L47.9729 53.6528C47.665 53.8838 46.9942 54.3346 46.4883 54.6425C45.6636 55.1594 45.5866 55.1814 45.7845 54.8955C46.1694 54.3676 46.7962 53.037 47.0711 52.2013C47.3351 51.3655 47.7529 49.2872 47.665 49.1992C47.544 49.0782 43.3103 53.5319 42.7605 54.3456C42.2106 55.1704 41.8587 56.0501 41.8587 56.589C41.8587 56.8969 41.6058 57.0288 40.1323 57.4467C39.6044 57.6006 39.0876 57.7546 38.9886 57.7876C38.8896 57.8096 39.1536 57.4797 39.5714 57.0398C40.5171 56.0501 41.5508 54.5326 41.7378 53.8398C41.8257 53.5539 41.8587 53.29 41.8257 53.257C41.7928 53.224 41.5068 53.3339 41.1879 53.4879C40.869 53.6528 40.0553 54.0047 39.3625 54.2687C37.548 54.9724 36.9212 55.3243 36.2394 56.0391C35.4917 56.8089 34.8209 57.7986 34.8209 58.1175C34.8209 58.4474 34.5789 58.4914 32.8855 58.4914H31.4559L31.082 57.6336C30.7961 56.9958 30.5432 56.6219 30.0483 56.1271C29.2896 55.3683 28.5638 54.9615 26.9033 54.3346C26.2655 54.1037 25.3858 53.7188 24.9349 53.4989L24.1211 53.081L24.1981 53.3999C24.44 54.3676 25.6607 56.1491 26.8373 57.2597L27.5521 57.9195L26.3755 57.6116C24.2421 57.0508 24.3521 57.1058 24.1871 56.314C24.0002 55.3683 23.7363 54.8185 23.0875 54.0267C22.4277 53.191 18.5238 49.1332 18.4579 49.1882C18.3589 49.2872 18.6888 50.8927 19.0517 52.0913C19.4476 53.4109 19.8214 54.2357 20.2723 54.8405C20.4263 55.0384 20.5252 55.2254 20.5032 55.2474C20.4593 55.3023 18.6778 54.2027 17.985 53.6968L17.4682 53.3229L17.5781 52.8501C17.7101 52.2453 17.6001 51.1896 17.2702 50.0459C16.9843 49.0672 16.5444 48.1325 15.6317 46.56C15.3128 46.0102 14.84 45.1634 14.576 44.6686C14.3121 44.1627 14.0592 43.7559 14.0152 43.7559C13.8943 43.7559 13.9162 48.1215 14.0262 49.1112C14.0812 49.5511 14.2242 50.1119 14.3451 50.3649L14.576 50.8267L14.1802 50.4528C13.3444 49.6501 11.9588 47.8906 12.0688 47.7586C12.2228 47.5607 12.5747 46.0982 12.6626 45.2404C12.7506 44.3057 12.6186 43.283 12.1018 40.9517C11.8929 39.984 11.6179 38.6974 11.508 38.0926L11.31 36.9929L11.0241 37.6087C10.6942 38.3125 10.3643 39.5771 10.0674 41.2706C9.8145 42.7112 9.81449 42.9971 10.0234 44.1847C10.1114 44.7016 10.1664 45.1304 10.1554 45.1524C10.0894 45.2074 8.86878 42.7882 8.43991 41.7655L8.01104 40.7538L8.30795 40.5009C8.92377 39.984 9.64954 38.2905 9.84748 36.883C9.99044 35.8603 10.2983 31.8795 10.2983 31.0217C10.2983 30.7028 10.2434 30.4499 10.1884 30.4499C10.0234 30.4499 8.75882 32.4073 8.12101 33.6499C7.51619 34.8266 7.27427 35.6843 7.15331 36.9929L7.07633 37.8727L6.93337 37.2678C6.77942 36.63 6.38354 34.2218 6.30656 33.452C6.26258 33.1111 6.28457 33.0121 6.39454 33.0451C6.47151 33.0781 6.8454 32.6822 7.29626 32.0774C8.34094 30.6809 8.78081 29.9661 9.12171 29.1303C9.42961 28.3386 10.6722 24.4458 10.7932 23.8519L10.8812 23.478L10.0674 24.2148C7.86809 26.2272 6.8344 27.7228 6.35055 29.5702L6.13062 30.3949L6.1856 29.3503C6.25158 28.1956 6.53749 25.5894 6.61447 25.3695C6.64746 25.2925 6.91138 25.1055 7.19729 24.9516C8.07702 24.4897 9.7925 22.6533 11.0131 20.8828C11.6179 20.0031 12.3987 18.8924 12.7506 18.4086C13.1135 17.9357 13.3444 17.5179 13.2784 17.4959C13.1025 17.4409 11.2001 18.4746 9.94646 19.3103C8.96775 19.9591 8.28596 20.6299 7.63716 21.5426C7.43922 21.8286 7.96706 20.245 8.4949 18.9914C8.83579 18.1667 8.94576 18.0237 9.20968 18.0237C9.50659 18.0237 11.1121 17.166 12.2338 16.3962C13.2015 15.7474 16.5884 12.9433 16.6544 12.7343C16.7204 12.5474 15.8627 12.6354 14.807 12.9213C13.5753 13.2512 12.2448 13.856 11.299 14.5048L10.6172 14.9666L10.9252 14.4828C11.354 13.812 12.4427 12.3824 12.6186 12.2395C12.7066 12.1735 13.2784 12.0635 13.8833 11.9975C14.4991 11.9316 15.4008 11.7446 15.8956 11.5907C16.7864 11.3048 20.5472 9.65526 20.8331 9.42433C21.141 9.17141 20.7232 9.06144 19.2716 9.02845C17.6881 8.98447 16.5774 9.10543 15.5877 9.44632L14.9719 9.65526L15.3568 9.32536C15.5657 9.14941 16.0936 8.70955 16.5334 8.35766L17.3252 7.70885L17.7981 7.8848C18.4249 8.10474 20.7892 8.10473 22.5156 7.8738C23.2194 7.77483 24.2531 7.66487 24.8249 7.62088C26.0565 7.53291 26.2545 7.45593 25.8916 7.225C25.5177 6.98308 24.1431 6.49922 23.2414 6.29028C22.3947 6.10334 20.5582 6.03736 19.7665 6.18032L19.2716 6.26829L20.3603 5.44354C21.328 4.70677 21.5039 4.6078 22.0538 4.55281C23.4064 4.39886 24.3191 3.87102 25.7486 2.43046C26.9033 1.25382 27.761 -0.0327873 27.3761 0.000202179C27.3212 0.000202179 26.5184 0.24213 25.5837 0.528042ZM49.2265 54.0267C49.2265 54.0487 49.1385 54.1367 49.0395 54.2137C48.8636 54.3566 48.8526 54.3456 48.9956 54.1697C49.1385 53.9937 49.2265 53.9388 49.2265 54.0267Z" fill="black"/>
<path d="M52.4528 5.97275C52.4968 7.14939 52.5848 8.37002 52.6507 8.69992C52.8157 9.48068 53.2116 10.2944 53.8054 11.0862C54.2562 11.691 55.3009 12.6367 55.5099 12.6367C55.7298 12.6367 55.8837 11.735 55.8837 10.4374C55.8837 8.78789 55.6748 8.07311 54.8611 6.85248C54.3332 6.04973 52.5518 3.8394 52.4418 3.8394C52.4088 3.8394 52.4198 4.79611 52.4528 5.97275Z" fill="black"/>
<path d="M16.2141 36V34.739L19.3471 32.074C19.9971 31.5193 20.4435 31.073 20.6861 30.735C20.9288 30.3883 21.0501 30.0157 21.0501 29.617C21.0501 29.1837 20.9115 28.8413 20.6341 28.59C20.3568 28.33 20.0058 28.2 19.5811 28.2C19.1825 28.2 18.8228 28.3083 18.5021 28.525C18.1815 28.7417 17.8435 29.0883 17.4881 29.565L16.3441 28.668C16.8121 28.018 17.2975 27.5413 17.8001 27.238C18.3028 26.926 18.9355 26.77 19.6981 26.77C20.5821 26.77 21.3015 27.0213 21.8561 27.524C22.4195 28.0267 22.7011 28.681 22.7011 29.487V29.513C22.7011 29.981 22.6058 30.41 22.4151 30.8C22.2331 31.1813 21.9905 31.528 21.6871 31.84C21.3925 32.1433 20.9418 32.542 20.3351 33.036L18.4631 34.596H22.7921V36H16.2141ZM31.1028 34.804C30.3661 35.7053 29.4128 36.156 28.2428 36.156C27.0728 36.156 26.1195 35.7097 25.3828 34.817C24.6548 33.9157 24.2908 32.802 24.2908 31.476V31.45C24.2908 30.124 24.6591 29.0103 25.3958 28.109C26.1411 27.199 27.0988 26.744 28.2688 26.744C29.4388 26.744 30.3878 27.1947 31.1158 28.096C31.8525 28.9887 32.2208 30.098 32.2208 31.424V31.45C32.2208 32.776 31.8481 33.894 31.1028 34.804ZM28.2688 34.713C28.9535 34.713 29.5081 34.401 29.9328 33.777C30.3575 33.153 30.5698 32.386 30.5698 31.476V31.45C30.5698 30.5313 30.3531 29.76 29.9198 29.136C29.4865 28.5033 28.9275 28.187 28.2428 28.187C27.5581 28.187 27.0035 28.499 26.5788 29.123C26.1541 29.7383 25.9418 30.5053 25.9418 31.424V31.45C25.9418 32.3687 26.1541 33.1443 26.5788 33.777C27.0121 34.401 27.5755 34.713 28.2688 34.713ZM33.4671 36V34.739L36.6001 32.074C37.2501 31.5193 37.6964 31.073 37.9391 30.735C38.1817 30.3883 38.3031 30.0157 38.3031 29.617C38.3031 29.1837 38.1644 28.8413 37.8871 28.59C37.6097 28.33 37.2587 28.2 36.8341 28.2C36.4354 28.2 36.0757 28.3083 35.7551 28.525C35.4344 28.7417 35.0964 29.0883 34.7411 29.565L33.5971 28.668C34.0651 28.018 34.5504 27.5413 35.0531 27.238C35.5557 26.926 36.1884 26.77 36.9511 26.77C37.8351 26.77 38.5544 27.0213 39.1091 27.524C39.6724 28.0267 39.9541 28.681 39.9541 29.487V29.513C39.9541 29.981 39.8587 30.41 39.6681 30.8C39.4861 31.1813 39.2434 31.528 38.9401 31.84C38.6454 32.1433 38.1947 32.542 37.5881 33.036L35.7161 34.596H40.0451V36H33.4671ZM45.9175 36V33.959H41.3285L41.0295 32.815L46.0865 26.835H47.4515V32.646H48.7515V33.959H47.4515V36H45.9175ZM42.9275 32.646H45.9175V29.045L42.9275 32.646Z" fill="black"/>
<path d="M15.5771 38.6H49.4275V39.25H15.5771V38.6Z" fill="black"/>
<a href="https://www.tadviser.ru/index.php/%D0%A1%D1%82%D0%B0%D1%82%D1%8C%D1%8F:%D0%97%D0%B0%D0%BA%D0%B0%D0%B7%D0%BD%D0%B0%D1%8F_%D1%80%D0%B0%D0%B7%D1%80%D0%B0%D0%B1%D0%BE%D1%82%D0%BA%D0%B0_%D0%9F%D0%9E:_%D0%B4%D1%80%D0%B0%D0%B9%D0%B2%D0%B5%D1%80%D1%8B%2C_%D0%BF%D1%80%D0%B5%D0%BF%D1%8F%D1%82%D1%81%D1%82%D0%B2%D0%B8%D1%8F_%D0%B8_%D0%BF%D0%B5%D1%80%D1%81%D0%BF%D0%B5%D0%BA%D1%82%D0%B8%D0%B2%D1%8B">
<rect fill="black" fill-opacity="0" x="5.57715" y="0.2" width="33.8504" height="15.6"/>
</a>
<path d="M74.915 18V9.21H71.57V7.5H80.105V9.21H76.76V18H74.915ZM86.486 18.18C84.896 18.18 83.586 17.655 82.556 16.605C81.526 15.555 81.011 14.28 81.011 12.78V12.75C81.011 11.25 81.531 9.97 82.571 8.91C83.621 7.85 84.936 7.32 86.516 7.32C88.106 7.32 89.416 7.845 90.446 8.895C91.476 9.945 91.991 11.22 91.991 12.72V12.75C91.991 14.25 91.466 15.53 90.416 16.59C89.376 17.65 88.066 18.18 86.486 18.18ZM83.951 15.39C84.631 16.11 85.486 16.47 86.516 16.47C87.546 16.47 88.391 16.115 89.051 15.405C89.721 14.695 90.056 13.82 90.056 12.78V12.75C90.056 11.71 89.716 10.83 89.036 10.11C88.366 9.39 87.516 9.03 86.486 9.03C85.456 9.03 84.606 9.385 83.936 10.095C83.276 10.805 82.946 11.68 82.946 12.72V12.75C82.946 13.79 83.281 14.67 83.951 15.39ZM94.2201 18V7.5H102.875V18H101.015V9.18H96.0651V18H94.2201ZM105.048 14.295V12.51H109.488V14.295H105.048ZM114.891 18.18C113.441 18.18 112.156 17.645 111.036 16.575L112.176 15.24C113.076 16.08 113.976 16.5 114.876 16.5C115.506 16.5 116.011 16.335 116.391 16.005C116.771 15.675 116.961 15.235 116.961 14.685V14.655C116.961 14.125 116.761 13.705 116.361 13.395C115.961 13.075 115.436 12.915 114.786 12.915C114.156 12.915 113.511 13.07 112.851 13.38L111.741 12.645L112.041 7.5H118.326V9.15H113.631L113.466 11.595C114.016 11.395 114.571 11.295 115.131 11.295C116.201 11.295 117.076 11.58 117.756 12.15C118.446 12.71 118.791 13.525 118.791 14.595V14.625C118.791 15.695 118.431 16.555 117.711 17.205C117.001 17.855 116.061 18.18 114.891 18.18ZM128.392 16.62C127.542 17.66 126.442 18.18 125.092 18.18C123.742 18.18 122.642 17.665 121.792 16.635C120.952 15.595 120.532 14.31 120.532 12.78V12.75C120.532 11.22 120.957 9.935 121.807 8.895C122.667 7.845 123.772 7.32 125.122 7.32C126.472 7.32 127.567 7.84 128.407 8.88C129.257 9.91 129.682 11.19 129.682 12.72V12.75C129.682 14.28 129.252 15.57 128.392 16.62ZM125.122 16.515C125.912 16.515 126.552 16.155 127.042 15.435C127.532 14.715 127.777 13.83 127.777 12.78V12.75C127.777 11.69 127.527 10.8 127.027 10.08C126.527 9.35 125.882 8.985 125.092 8.985C124.302 8.985 123.662 9.345 123.172 10.065C122.682 10.775 122.437 11.66 122.437 12.72V12.75C122.437 13.81 122.682 14.705 123.172 15.435C123.672 16.155 124.322 16.515 125.122 16.515ZM137.983 10.08V13.215H138.883L141.403 10.08H143.638L140.308 13.95L143.743 18H141.553L138.913 14.79H137.983V18H136.153V10.08H137.983ZM145.03 20.4V10.08H146.86V11.4C147.56 10.41 148.46 9.915 149.56 9.915C150.55 9.915 151.41 10.285 152.14 11.025C152.87 11.765 153.235 12.765 153.235 14.025V14.055C153.235 15.315 152.87 16.315 152.14 17.055C151.42 17.795 150.56 18.165 149.56 18.165C148.46 18.165 147.56 17.7 146.86 16.77V20.4H145.03ZM147.49 15.885C147.94 16.355 148.485 16.59 149.125 16.59C149.765 16.59 150.3 16.36 150.73 15.9C151.17 15.43 151.39 14.815 151.39 14.055V14.025C151.39 13.275 151.17 12.665 150.73 12.195C150.29 11.725 149.755 11.49 149.125 11.49C148.485 11.49 147.94 11.73 147.49 12.21C147.04 12.68 146.815 13.285 146.815 14.025V14.055C146.815 14.795 147.04 15.405 147.49 15.885ZM158.148 15.96L160.218 10.08H162.108L158.958 18.21C158.638 19.03 158.283 19.605 157.893 19.935C157.503 20.275 156.988 20.445 156.348 20.445C155.678 20.445 155.053 20.28 154.473 19.95L155.088 18.615C155.468 18.815 155.823 18.915 156.153 18.915C156.423 18.915 156.638 18.845 156.798 18.705C156.968 18.575 157.128 18.345 157.278 18.015L153.978 10.08H155.928L158.148 15.96ZM163.648 18V10.08H170.938V18H169.123V11.715H165.478V18H163.648ZM173.199 18V10.08H175.029V13.185H178.689V10.08H180.504V18H178.689V14.85H175.029V18H173.199ZM186.395 18.18C185.235 18.18 184.265 17.8 183.485 17.04C182.715 16.27 182.33 15.28 182.33 14.07V14.04C182.33 12.88 182.695 11.905 183.425 11.115C184.155 10.315 185.08 9.915 186.2 9.915C187.4 9.915 188.33 10.325 188.99 11.145C189.66 11.955 189.995 12.965 189.995 14.175C189.995 14.275 189.985 14.445 189.965 14.685H184.145C184.245 15.325 184.5 15.82 184.91 16.17C185.32 16.52 185.825 16.695 186.425 16.695C187.195 16.695 187.91 16.38 188.57 15.75L189.635 16.695C188.795 17.685 187.715 18.18 186.395 18.18ZM184.13 13.485H188.195C188.135 12.875 187.93 12.375 187.58 11.985C187.23 11.595 186.765 11.4 186.185 11.4C185.625 11.4 185.16 11.59 184.79 11.97C184.43 12.35 184.21 12.855 184.13 13.485ZM191.803 18V10.08H193.618V15.15L197.398 10.08H199.123V18H197.308V12.81L193.453 18H191.803ZM197.233 8.535C196.773 8.915 196.178 9.105 195.448 9.105C194.718 9.105 194.118 8.915 193.648 8.535C193.188 8.145 192.928 7.61 192.868 6.93H194.128C194.328 7.54 194.768 7.845 195.448 7.845C196.128 7.845 196.568 7.54 196.768 6.93H198.028C197.968 7.61 197.703 8.145 197.233 8.535ZM201.368 18V10.08H203.198V16.365H206.363V10.08H208.193V16.365H211.358V10.08H213.188V18H201.368ZM215.445 18V10.08H217.26V15.15L221.04 10.08H222.765V18H220.95V12.81L217.095 18H215.445ZM226.421 10.08L228.236 12.735L230.081 10.08H232.016L229.226 13.95L232.136 18H230.156L228.206 15.18L226.271 18H224.336L227.231 13.965L224.441 10.08H226.421ZM72.125 36V28.08H79.415V36H77.6V29.715H73.955V36H72.125ZM85.4558 36.18C84.2558 36.18 83.2558 35.785 82.4558 34.995C81.6558 34.195 81.2558 33.225 81.2558 32.085V32.055C81.2558 30.905 81.6608 29.93 82.4708 29.13C83.2808 28.32 84.2858 27.915 85.4858 27.915C86.6958 27.915 87.7008 28.315 88.5008 29.115C89.3008 29.905 89.7008 30.875 89.7008 32.025V32.055C89.7008 33.185 89.2958 34.155 88.4858 34.965C87.6758 35.775 86.6658 36.18 85.4558 36.18ZM85.4858 34.59C86.2058 34.59 86.7858 34.35 87.2258 33.87C87.6658 33.38 87.8858 32.785 87.8858 32.085V32.055C87.8858 31.345 87.6558 30.745 87.1958 30.255C86.7358 29.755 86.1558 29.505 85.4558 29.505C84.7458 29.505 84.1708 29.75 83.7308 30.24C83.2908 30.72 83.0708 31.315 83.0708 32.025V32.055C83.0708 32.755 83.3008 33.355 83.7608 33.855C84.2208 34.345 84.7958 34.59 85.4858 34.59ZM95.2092 36.18C94.0392 36.18 93.0642 35.785 92.2842 34.995C91.5042 34.195 91.1142 33.225 91.1142 32.085V32.055C91.1142 30.915 91.5042 29.94 92.2842 29.13C93.0742 28.32 94.0592 27.915 95.2392 27.915C96.4892 27.915 97.5442 28.37 98.4042 29.28L97.2642 30.495C96.6342 29.835 95.9542 29.505 95.2242 29.505C94.5742 29.505 94.0292 29.75 93.5892 30.24C93.1492 30.73 92.9292 31.325 92.9292 32.025V32.055C92.9292 32.765 93.1492 33.365 93.5892 33.855C94.0392 34.345 94.6092 34.59 95.2992 34.59C96.0192 34.59 96.7042 34.265 97.3542 33.615L98.4492 34.695C98.0192 35.175 97.5542 35.545 97.0542 35.805C96.5542 36.055 95.9392 36.18 95.2092 36.18ZM102.074 36V29.7H99.2538V28.08H106.709V29.7H103.889V36H102.074ZM110.177 36.165C109.387 36.165 108.717 35.95 108.167 35.52C107.627 35.09 107.357 34.49 107.357 33.72V33.69C107.357 32.85 107.652 32.215 108.242 31.785C108.842 31.355 109.642 31.14 110.642 31.14C111.372 31.14 112.082 31.25 112.772 31.47V31.275C112.772 30.125 112.117 29.55 110.807 29.55C110.087 29.55 109.332 29.715 108.542 30.045L108.047 28.62C109.057 28.19 110.057 27.975 111.047 27.975C112.227 27.975 113.102 28.27 113.672 28.86C114.242 29.43 114.527 30.245 114.527 31.305V36H112.757V35.01C112.117 35.78 111.257 36.165 110.177 36.165ZM110.687 34.845C111.297 34.845 111.802 34.69 112.202 34.38C112.602 34.06 112.802 33.65 112.802 33.15V32.61C112.262 32.4 111.662 32.295 111.002 32.295C110.412 32.295 109.952 32.41 109.622 32.64C109.302 32.87 109.142 33.195 109.142 33.615V33.645C109.142 34.015 109.287 34.31 109.577 34.53C109.867 34.74 110.237 34.845 110.687 34.845ZM116.686 36V28.08H120.721C121.571 28.08 122.241 28.26 122.731 28.62C123.221 28.97 123.466 29.47 123.466 30.12V30.135C123.466 30.965 123.051 31.55 122.221 31.89C123.271 32.22 123.796 32.85 123.796 33.78V33.795C123.796 34.505 123.516 35.05 122.956 35.43C122.406 35.81 121.666 36 120.736 36H116.686ZM118.471 31.365H120.361C120.801 31.365 121.131 31.275 121.351 31.095C121.571 30.915 121.681 30.67 121.681 30.36V30.345C121.681 30.065 121.571 29.835 121.351 29.655C121.131 29.475 120.816 29.39 120.406 29.4H118.471V31.365ZM118.471 32.64V34.68H120.631C121.561 34.68 122.026 34.345 122.026 33.675V33.66C122.026 33.34 121.896 33.09 121.636 32.91C121.386 32.72 121.026 32.63 120.556 32.64H118.471ZM125.621 36V28.08H127.451V34.365H130.616V28.08H132.446V34.365H135.611V28.08H137.441V34.365H138.371V37.98H136.721V36H125.621ZM139.947 36V28.08H141.762V33.15L145.542 28.08H147.267V36H145.452V30.81L141.597 36H139.947ZM151.343 28.08V31.215H152.243L154.763 28.08H156.998L153.668 31.95L157.103 36H154.913L152.273 32.79H151.343V36H149.513V28.08H151.343ZM161.789 36.18C160.589 36.18 159.589 35.785 158.789 34.995C157.989 34.195 157.589 33.225 157.589 32.085V32.055C157.589 30.905 157.994 29.93 158.804 29.13C159.614 28.32 160.619 27.915 161.819 27.915C163.029 27.915 164.034 28.315 164.834 29.115C165.634 29.905 166.034 30.875 166.034 32.025V32.055C166.034 33.185 165.629 34.155 164.819 34.965C164.009 35.775 162.999 36.18 161.789 36.18ZM161.819 34.59C162.539 34.59 163.119 34.35 163.559 33.87C163.999 33.38 164.219 32.785 164.219 32.085V32.055C164.219 31.345 163.989 30.745 163.529 30.255C163.069 29.755 162.489 29.505 161.789 29.505C161.079 29.505 160.504 29.75 160.064 30.24C159.624 30.72 159.404 31.315 159.404 32.025V32.055C159.404 32.755 159.634 33.355 160.094 33.855C160.554 34.345 161.129 34.59 161.819 34.59ZM167.867 36V28.08H171.902C172.752 28.08 173.422 28.26 173.912 28.62C174.402 28.97 174.647 29.47 174.647 30.12V30.135C174.647 30.965 174.232 31.55 173.402 31.89C174.452 32.22 174.977 32.85 174.977 33.78V33.795C174.977 34.505 174.697 35.05 174.137 35.43C173.587 35.81 172.847 36 171.917 36H167.867ZM169.652 31.365H171.542C171.982 31.365 172.312 31.275 172.532 31.095C172.752 30.915 172.862 30.67 172.862 30.36V30.345C172.862 30.065 172.752 29.835 172.532 29.655C172.312 29.475 171.997 29.39 171.587 29.4H169.652V31.365ZM169.652 32.64V34.68H171.812C172.742 34.68 173.207 34.345 173.207 33.675V33.66C173.207 33.34 173.077 33.09 172.817 32.91C172.567 32.72 172.207 32.63 171.737 32.64H169.652ZM184.735 33.96L186.805 28.08H188.695L185.545 36.21C185.225 37.03 184.87 37.605 184.48 37.935C184.09 38.275 183.575 38.445 182.935 38.445C182.265 38.445 181.64 38.28 181.06 37.95L181.675 36.615C182.055 36.815 182.41 36.915 182.74 36.915C183.01 36.915 183.225 36.845 183.385 36.705C183.555 36.575 183.715 36.345 183.865 36.015L180.565 28.08H182.515L184.735 33.96ZM193.456 36.18C192.286 36.18 191.311 35.785 190.531 34.995C189.751 34.195 189.361 33.225 189.361 32.085V32.055C189.361 30.915 189.751 29.94 190.531 29.13C191.321 28.32 192.306 27.915 193.486 27.915C194.736 27.915 195.791 28.37 196.651 29.28L195.511 30.495C194.881 29.835 194.201 29.505 193.471 29.505C192.821 29.505 192.276 29.75 191.836 30.24C191.396 30.73 191.176 31.325 191.176 32.025V32.055C191.176 32.765 191.396 33.365 191.836 33.855C192.286 34.345 192.856 34.59 193.546 34.59C194.266 34.59 194.951 34.265 195.601 33.615L196.696 34.695C196.266 35.175 195.801 35.545 195.301 35.805C194.801 36.055 194.186 36.18 193.456 36.18ZM202.643 28.02L206.078 36H204.098L201.773 30.255L199.418 36H197.498L200.933 28.02H202.643ZM210.208 33.96L212.278 28.08H214.168L211.018 36.21C210.698 37.03 210.343 37.605 209.953 37.935C209.563 38.275 209.048 38.445 208.408 38.445C207.738 38.445 207.113 38.28 206.533 37.95L207.148 36.615C207.528 36.815 207.883 36.915 208.213 36.915C208.483 36.915 208.698 36.845 208.858 36.705C209.028 36.575 209.188 36.345 209.338 36.015L206.038 28.08H207.988L210.208 33.96ZM215.709 36V28.08H221.649V29.715H217.539V36H215.709ZM227.75 36V28.08H235.04V36H233.225V29.715H229.58V36H227.75ZM241.081 36.18C239.881 36.18 238.881 35.785 238.081 34.995C237.281 34.195 236.881 33.225 236.881 32.085V32.055C236.881 30.905 237.286 29.93 238.096 29.13C238.906 28.32 239.911 27.915 241.111 27.915C242.321 27.915 243.326 28.315 244.126 29.115C244.926 29.905 245.326 30.875 245.326 32.025V32.055C245.326 33.185 244.921 34.155 244.111 34.965C243.301 35.775 242.291 36.18 241.081 36.18ZM241.111 34.59C241.831 34.59 242.411 34.35 242.851 33.87C243.291 33.38 243.511 32.785 243.511 32.085V32.055C243.511 31.345 243.281 30.745 242.821 30.255C242.361 29.755 241.781 29.505 241.081 29.505C240.371 29.505 239.796 29.75 239.356 30.24C238.916 30.72 238.696 31.315 238.696 32.025V32.055C238.696 32.755 238.926 33.355 239.386 33.855C239.846 34.345 240.421 34.59 241.111 34.59ZM71.54 53.04L72.455 51.81C73.285 52.4 74.175 52.695 75.125 52.695C75.685 52.695 76.12 52.605 76.43 52.425C76.74 52.235 76.895 51.975 76.895 51.645V51.63C76.895 51.33 76.75 51.095 76.46 50.925C76.17 50.755 75.76 50.675 75.23 50.685H73.505V49.35H75.215C76.195 49.35 76.685 49.025 76.685 48.375V48.36C76.685 48.06 76.545 47.825 76.265 47.655C75.995 47.475 75.615 47.39 75.125 47.4C74.255 47.4 73.41 47.7 72.59 48.3L71.63 47.145C72.66 46.325 73.855 45.915 75.215 45.915C76.205 45.915 76.995 46.12 77.585 46.53C78.175 46.94 78.47 47.48 78.47 48.15V48.165C78.47 48.995 78.005 49.595 77.075 49.965C78.145 50.245 78.68 50.86 78.68 51.81V51.825C78.68 52.495 78.36 53.055 77.72 53.505C77.09 53.955 76.225 54.18 75.125 54.18C73.765 54.18 72.57 53.8 71.54 53.04ZM82.7989 54.165C82.0089 54.165 81.3389 53.95 80.7889 53.52C80.2489 53.09 79.9789 52.49 79.9789 51.72V51.69C79.9789 50.85 80.2739 50.215 80.8639 49.785C81.4639 49.355 82.2639 49.14 83.2639 49.14C83.9939 49.14 84.7039 49.25 85.3939 49.47V49.275C85.3939 48.125 84.7389 47.55 83.4289 47.55C82.7089 47.55 81.9539 47.715 81.1639 48.045L80.6689 46.62C81.6789 46.19 82.6789 45.975 83.6689 45.975C84.8489 45.975 85.7239 46.27 86.2939 46.86C86.8639 47.43 87.1489 48.245 87.1489 49.305V54H85.3789V53.01C84.7389 53.78 83.8789 54.165 82.7989 54.165ZM83.3089 52.845C83.9189 52.845 84.4239 52.69 84.8239 52.38C85.2239 52.06 85.4239 51.65 85.4239 51.15V50.61C84.8839 50.4 84.2839 50.295 83.6239 50.295C83.0339 50.295 82.5739 50.41 82.2439 50.64C81.9239 50.87 81.7639 51.195 81.7639 51.615V51.645C81.7639 52.015 81.9089 52.31 82.1989 52.53C82.4889 52.74 82.8589 52.845 83.3089 52.845ZM91.1376 46.08V49.215H92.0376L94.5576 46.08H96.7926L93.4626 49.95L96.8976 54H94.7076L92.0676 50.79H91.1376V54H89.3076V46.08H91.1376ZM100.333 54.165C99.5431 54.165 98.8731 53.95 98.3231 53.52C97.7831 53.09 97.5131 52.49 97.5131 51.72V51.69C97.5131 50.85 97.8081 50.215 98.3981 49.785C98.9981 49.355 99.7981 49.14 100.798 49.14C101.528 49.14 102.238 49.25 102.928 49.47V49.275C102.928 48.125 102.273 47.55 100.963 47.55C100.243 47.55 99.4881 47.715 98.6981 48.045L98.2031 46.62C99.2131 46.19 100.213 45.975 101.203 45.975C102.383 45.975 103.258 46.27 103.828 46.86C104.398 47.43 104.683 48.245 104.683 49.305V54H102.913V53.01C102.273 53.78 101.413 54.165 100.333 54.165ZM100.843 52.845C101.453 52.845 101.958 52.69 102.358 52.38C102.758 52.06 102.958 51.65 102.958 51.15V50.61C102.418 50.4 101.818 50.295 101.158 50.295C100.568 50.295 100.108 50.41 99.7781 50.64C99.4581 50.87 99.2981 51.195 99.2981 51.615V51.645C99.2981 52.015 99.4431 52.31 99.7331 52.53C100.023 52.74 100.393 52.845 100.843 52.845ZM106.257 53.04L107.172 51.81C108.002 52.4 108.892 52.695 109.842 52.695C110.402 52.695 110.837 52.605 111.147 52.425C111.457 52.235 111.612 51.975 111.612 51.645V51.63C111.612 51.33 111.467 51.095 111.177 50.925C110.887 50.755 110.477 50.675 109.947 50.685H108.222V49.35H109.932C110.912 49.35 111.402 49.025 111.402 48.375V48.36C111.402 48.06 111.262 47.825 110.982 47.655C110.712 47.475 110.332 47.39 109.842 47.4C108.972 47.4 108.127 47.7 107.307 48.3L106.347 47.145C107.377 46.325 108.572 45.915 109.932 45.915C110.922 45.915 111.712 46.12 112.302 46.53C112.892 46.94 113.187 47.48 113.187 48.15V48.165C113.187 48.995 112.722 49.595 111.792 49.965C112.862 50.245 113.397 50.86 113.397 51.81V51.825C113.397 52.495 113.077 53.055 112.437 53.505C111.807 53.955 110.942 54.18 109.842 54.18C108.482 54.18 107.287 53.8 106.257 53.04ZM115.221 54V46.08H117.051V49.185H120.711V46.08H122.526V54H120.711V50.85H117.051V54H115.221ZM128.551 54.18C127.351 54.18 126.351 53.785 125.551 52.995C124.751 52.195 124.351 51.225 124.351 50.085V50.055C124.351 48.905 124.756 47.93 125.566 47.13C126.376 46.32 127.381 45.915 128.581 45.915C129.791 45.915 130.796 46.315 131.596 47.115C132.396 47.905 132.796 48.875 132.796 50.025V50.055C132.796 51.185 132.391 52.155 131.581 52.965C130.771 53.775 129.761 54.18 128.551 54.18ZM128.581 52.59C129.301 52.59 129.881 52.35 130.321 51.87C130.761 51.38 130.981 50.785 130.981 50.085V50.055C130.981 49.345 130.751 48.745 130.291 48.255C129.831 47.755 129.251 47.505 128.551 47.505C127.841 47.505 127.266 47.75 126.826 48.24C126.386 48.72 126.166 49.315 126.166 50.025V50.055C126.166 50.755 126.396 51.355 126.856 51.855C127.316 52.345 127.891 52.59 128.581 52.59ZM134.63 54V46.08H136.445V51.15L140.225 46.08H141.95V54H140.135V48.81L136.28 54H134.63ZM140.06 44.535C139.6 44.915 139.005 45.105 138.275 45.105C137.545 45.105 136.945 44.915 136.475 44.535C136.015 44.145 135.755 43.61 135.695 42.93H136.955C137.155 43.54 137.595 43.845 138.275 43.845C138.955 43.845 139.395 43.54 139.595 42.93H140.855C140.795 43.61 140.53 44.145 140.06 44.535ZM148.692 56.4V46.08H150.522V47.4C151.222 46.41 152.122 45.915 153.222 45.915C154.212 45.915 155.072 46.285 155.802 47.025C156.532 47.765 156.897 48.765 156.897 50.025V50.055C156.897 51.315 156.532 52.315 155.802 53.055C155.082 53.795 154.222 54.165 153.222 54.165C152.122 54.165 151.222 53.7 150.522 52.77V56.4H148.692ZM151.152 51.885C151.602 52.355 152.147 52.59 152.787 52.59C153.427 52.59 153.962 52.36 154.392 51.9C154.832 51.43 155.052 50.815 155.052 50.055V50.025C155.052 49.275 154.832 48.665 154.392 48.195C153.952 47.725 153.417 47.49 152.787 47.49C152.147 47.49 151.602 47.73 151.152 48.21C150.702 48.68 150.477 49.285 150.477 50.025V50.055C150.477 50.795 150.702 51.405 151.152 51.885ZM161.051 54.165C160.261 54.165 159.591 53.95 159.041 53.52C158.501 53.09 158.231 52.49 158.231 51.72V51.69C158.231 50.85 158.526 50.215 159.116 49.785C159.716 49.355 160.516 49.14 161.516 49.14C162.246 49.14 162.956 49.25 163.646 49.47V49.275C163.646 48.125 162.991 47.55 161.681 47.55C160.961 47.55 160.206 47.715 159.416 48.045L158.921 46.62C159.931 46.19 160.931 45.975 161.921 45.975C163.101 45.975 163.976 46.27 164.546 46.86C165.116 47.43 165.401 48.245 165.401 49.305V54H163.631V53.01C162.991 53.78 162.131 54.165 161.051 54.165ZM161.561 52.845C162.171 52.845 162.676 52.69 163.076 52.38C163.476 52.06 163.676 51.65 163.676 51.15V50.61C163.136 50.4 162.536 50.295 161.876 50.295C161.286 50.295 160.826 50.41 160.496 50.64C160.176 50.87 160.016 51.195 160.016 51.615V51.645C160.016 52.015 160.161 52.31 160.451 52.53C160.741 52.74 161.111 52.845 161.561 52.845ZM166.975 53.04L167.89 51.81C168.72 52.4 169.61 52.695 170.56 52.695C171.12 52.695 171.555 52.605 171.865 52.425C172.175 52.235 172.33 51.975 172.33 51.645V51.63C172.33 51.33 172.185 51.095 171.895 50.925C171.605 50.755 171.195 50.675 170.665 50.685H168.94V49.35H170.65C171.63 49.35 172.12 49.025 172.12 48.375V48.36C172.12 48.06 171.98 47.825 171.7 47.655C171.43 47.475 171.05 47.39 170.56 47.4C169.69 47.4 168.845 47.7 168.025 48.3L167.065 47.145C168.095 46.325 169.29 45.915 170.65 45.915C171.64 45.915 172.43 46.12 173.02 46.53C173.61 46.94 173.905 47.48 173.905 48.15V48.165C173.905 48.995 173.44 49.595 172.51 49.965C173.58 50.245 174.115 50.86 174.115 51.81V51.825C174.115 52.495 173.795 53.055 173.155 53.505C172.525 53.955 171.66 54.18 170.56 54.18C169.2 54.18 168.005 53.8 166.975 53.04ZM175.938 56.4V46.08H177.768V47.4C178.468 46.41 179.368 45.915 180.468 45.915C181.458 45.915 182.318 46.285 183.048 47.025C183.778 47.765 184.143 48.765 184.143 50.025V50.055C184.143 51.315 183.778 52.315 183.048 53.055C182.328 53.795 181.468 54.165 180.468 54.165C179.368 54.165 178.468 53.7 177.768 52.77V56.4H175.938ZM178.398 51.885C178.848 52.355 179.393 52.59 180.033 52.59C180.673 52.59 181.208 52.36 181.638 51.9C182.078 51.43 182.298 50.815 182.298 50.055V50.025C182.298 49.275 182.078 48.665 181.638 48.195C181.198 47.725 180.663 47.49 180.033 47.49C179.393 47.49 178.848 47.73 178.398 48.21C177.948 48.68 177.723 49.285 177.723 50.025V50.055C177.723 50.795 177.948 51.405 178.398 51.885ZM188.297 54.165C187.507 54.165 186.837 53.95 186.287 53.52C185.747 53.09 185.477 52.49 185.477 51.72V51.69C185.477 50.85 185.772 50.215 186.362 49.785C186.962 49.355 187.762 49.14 188.762 49.14C189.492 49.14 190.202 49.25 190.892 49.47V49.275C190.892 48.125 190.237 47.55 188.927 47.55C188.207 47.55 187.452 47.715 186.662 48.045L186.167 46.62C187.177 46.19 188.177 45.975 189.167 45.975C190.347 45.975 191.222 46.27 191.792 46.86C192.362 47.43 192.647 48.245 192.647 49.305V54H190.877V53.01C190.237 53.78 189.377 54.165 188.297 54.165ZM188.807 52.845C189.417 52.845 189.922 52.69 190.322 52.38C190.722 52.06 190.922 51.65 190.922 51.15V50.61C190.382 50.4 189.782 50.295 189.122 50.295C188.532 50.295 188.072 50.41 187.742 50.64C187.422 50.87 187.262 51.195 187.262 51.615V51.645C187.262 52.015 187.407 52.31 187.697 52.53C187.987 52.74 188.357 52.845 188.807 52.845ZM198.586 54.18C197.426 54.18 196.486 53.82 195.766 53.1C194.916 52.25 194.491 51 194.491 49.35V49.335C194.491 47.515 194.831 46.13 195.511 45.18C196.201 44.22 197.281 43.62 198.751 43.38L201.601 42.9L201.886 44.565L199.066 45.015C198.156 45.175 197.476 45.465 197.026 45.885C196.586 46.305 196.311 46.915 196.201 47.715C196.901 46.945 197.861 46.56 199.081 46.56C200.221 46.56 201.116 46.895 201.766 47.565C202.426 48.235 202.756 49.105 202.756 50.175V50.19C202.756 51.33 202.366 52.28 201.586 53.04C200.816 53.8 199.816 54.18 198.586 54.18ZM198.616 52.635C199.306 52.635 199.866 52.405 200.296 51.945C200.736 51.485 200.956 50.905 200.956 50.205V50.19C200.956 49.52 200.751 48.975 200.341 48.555C199.941 48.135 199.401 47.925 198.721 47.925C197.991 47.925 197.406 48.145 196.966 48.585C196.526 49.025 196.306 49.585 196.306 50.265V50.28C196.306 50.97 196.521 51.535 196.951 51.975C197.381 52.415 197.936 52.635 198.616 52.635ZM208.385 54.18C207.185 54.18 206.185 53.785 205.385 52.995C204.585 52.195 204.185 51.225 204.185 50.085V50.055C204.185 48.905 204.59 47.93 205.4 47.13C206.21 46.32 207.215 45.915 208.415 45.915C209.625 45.915 210.63 46.315 211.43 47.115C212.23 47.905 212.63 48.875 212.63 50.025V50.055C212.63 51.185 212.225 52.155 211.415 52.965C210.605 53.775 209.595 54.18 208.385 54.18ZM208.415 52.59C209.135 52.59 209.715 52.35 210.155 51.87C210.595 51.38 210.815 50.785 210.815 50.085V50.055C210.815 49.345 210.585 48.745 210.125 48.255C209.665 47.755 209.085 47.505 208.385 47.505C207.675 47.505 207.1 47.75 206.66 48.24C206.22 48.72 206 49.315 206 50.025V50.055C206 50.755 206.23 51.355 206.69 51.855C207.15 52.345 207.725 52.59 208.415 52.59ZM216.229 54V47.7H213.409V46.08H220.864V47.7H218.044V54H216.229ZM224.321 46.08V49.215H225.221L227.741 46.08H229.976L226.646 49.95L230.081 54H227.891L225.251 50.79H224.321V54H222.491V46.08H224.321ZM234.632 54.18C233.472 54.18 232.502 53.8 231.722 53.04C230.952 52.27 230.567 51.28 230.567 50.07V50.04C230.567 48.88 230.932 47.905 231.662 47.115C232.392 46.315 233.317 45.915 234.437 45.915C235.637 45.915 236.567 46.325 237.227 47.145C237.897 47.955 238.232 48.965 238.232 50.175C238.232 50.275 238.222 50.445 238.202 50.685H232.382C232.482 51.325 232.737 51.82 233.147 52.17C233.557 52.52 234.062 52.695 234.662 52.695C235.432 52.695 236.147 52.38 236.807 51.75L237.872 52.695C237.032 53.685 235.952 54.18 234.632 54.18ZM232.367 49.485H236.432C236.372 48.875 236.167 48.375 235.817 47.985C235.467 47.595 235.002 47.4 234.422 47.4C233.862 47.4 233.397 47.59 233.027 47.97C232.667 48.35 232.447 48.855 232.367 49.485Z" fill="black"/>
</svg>
