<svg width="55" height="55" viewBox="0 0 55 55" fill="none" xmlns="http://www.w3.org/2000/svg">
<rect x="0.5" y="0.5" width="54" height="54" rx="27" stroke="#E8E8E8"/>
<g clip-path="url(#clip0_1321_77)">
<path d="M38.0002 19C38.0003 17.8955 37.1048 17 36.0002 17L20 17.0001C18.8954 17.0001 18 17.8956 18 19.0002L18.0003 35.0002C18.0003 36.1047 18.8957 37.0001 20.0003 37.0001H36C37.1046 37.0001 38 36.1047 38 35.0002L38.0002 19ZM34.5905 29.187C34.956 29.5596 35.7492 30.1848 35.6052 30.8213C35.4726 31.4056 34.6004 31.1925 33.7536 31.2264C32.7868 31.2673 32.2138 31.2885 31.6323 30.8213C31.3585 30.5997 31.1976 30.3372 30.9351 30.0437C30.6966 29.7783 30.396 29.3027 29.9867 29.3211C29.2514 29.3578 29.4815 30.3824 29.2204 31.081C25.1331 31.7246 23.4918 29.1997 22.0437 26.7496C21.3423 25.5627 20.329 23.0138 20.329 23.0138L23.2194 23.0039C23.2194 23.0039 24.1466 24.6905 24.3922 25.1252C24.6011 25.4949 24.8311 25.7885 25.0682 26.1188C25.2672 26.3925 25.5819 26.9289 25.9263 26.8851C26.4866 26.8131 26.5882 24.6397 26.241 23.9114C26.1027 23.6165 25.7711 23.5134 25.4281 23.4132C25.5438 22.6822 28.6699 22.5297 29.1752 23.0971C29.9091 23.9213 28.6671 26.2161 29.672 26.8851C31.0833 26.1456 32.2886 23.0491 32.2886 23.0491L35.673 23.0703C35.673 23.0703 35.1437 24.7441 34.5891 25.4865C34.2659 25.9212 33.1933 26.8893 33.2356 27.6077C33.2695 28.1765 34.1417 28.7297 34.5905 29.187Z" fill="#2D2D2D"/>
</g>
<defs>
<clipPath id="clip0_1321_77">
<rect width="20" height="20" fill="white" transform="translate(18 17)"/>
</clipPath>
</defs>
</svg>
