<svg width="19" height="19" viewBox="0 0 19 19" fill="none" xmlns="http://www.w3.org/2000/svg">
<g clip-path="url(#clip0_1321_1742)">
<path d="M6.58667 0H12.4133C17.7333 0 19 1.26667 19 6.58667V12.4133C19 17.7333 17.7333 19 12.4133 19H6.58667C1.26667 19 0 17.7333 0 12.4133V6.58667C0 1.26667 1.26667 0 6.58667 0Z" fill="#2D2D2D"/>
<path d="M15.5606 6.54637C15.6487 6.25282 15.5606 6.03711 15.1417 6.03711H13.7563C13.404 6.03711 13.2416 6.22345 13.1535 6.42892C13.1535 6.42892 12.449 8.1462 11.4509 9.26169C11.128 9.58458 10.9812 9.68732 10.8051 9.68732C10.717 9.68732 10.5896 9.58458 10.5896 9.29105V6.54637C10.5896 6.19411 10.4873 6.03711 10.1938 6.03711H8.01667C7.79654 6.03711 7.66414 6.2006 7.66414 6.35555C7.66414 6.6895 8.16315 6.76651 8.21459 7.70588V9.74606C8.21459 10.1934 8.13381 10.2745 7.95767 10.2745C7.48801 10.2745 6.34555 8.54951 5.66797 6.57571C5.53518 6.19208 5.40199 6.03711 5.04792 6.03711H3.6625C3.26667 6.03711 3.1875 6.22345 3.1875 6.42892C3.1875 6.79587 3.65719 8.61589 5.37444 11.023C6.51927 12.6669 8.13225 13.5579 9.6 13.5579C10.4806 13.5579 10.5896 13.36 10.5896 13.0191V11.7767C10.5896 11.3809 10.673 11.3019 10.9519 11.3019C11.1574 11.3019 11.5096 11.4046 12.3316 12.1972C13.2709 13.1365 13.4258 13.5579 13.9542 13.5579H15.3396C15.7354 13.5579 15.9333 13.36 15.8192 12.9694C15.6942 12.5802 15.2457 12.0154 14.6506 11.3459C14.3277 10.9643 13.8434 10.5533 13.6966 10.3478C13.4911 10.0836 13.5498 9.96619 13.6966 9.73137C13.6966 9.73137 15.3845 7.35362 15.5606 6.54637Z" fill="white"/>
</g>
<defs>
<clipPath id="clip0_1321_1742">
<rect width="19" height="19" fill="white"/>
</clipPath>
</defs>
</svg>
