<svg width="55" height="55" viewBox="0 0 55 55" fill="none" xmlns="http://www.w3.org/2000/svg">
<rect x="0.5" y="0.5" width="54" height="54" rx="27" stroke="#E8E8E8"/>
<g clip-path="url(#clip0_1321_86)">
<path d="M38.5745 21.9502C38.3088 20.9576 37.5286 20.1775 36.536 19.9118C34.7387 19.4297 27.5282 19.4297 27.5282 19.4297C27.5282 19.4297 20.3179 19.4297 18.5205 19.9118C17.5279 20.1775 16.7478 20.9576 16.4821 21.9502C16 23.7476 16 27.4999 16 27.4999C16 27.4999 16 31.2522 16.4821 33.0496C16.7478 34.0422 17.5279 34.8223 18.5205 35.0879C20.3179 35.57 27.5282 35.57 27.5282 35.57C27.5282 35.57 34.7387 35.57 36.536 35.0879C37.5286 34.8223 38.3088 34.0422 38.5745 33.0496C39.0566 31.2522 39.0566 27.4999 39.0566 27.4999C39.0566 27.4999 39.0546 23.7476 38.5745 21.9502Z" fill="#2D2D2D"/>
<path d="M25.2188 30.9592L31.2088 27.5011L25.2188 24.043V30.9592Z" fill="white"/>
</g>
<defs>
<clipPath id="clip0_1321_86">
<rect width="23" height="19" fill="white" transform="translate(16 18)"/>
</clipPath>
</defs>
</svg>
