<svg width="23" height="19" viewBox="0 0 23 19" fill="none" xmlns="http://www.w3.org/2000/svg">
<g clip-path="url(#clip0_1321_1745)">
<path d="M22.5745 3.9502C22.3088 2.95756 21.5286 2.17749 20.536 1.91177C18.7387 1.42969 11.5282 1.42969 11.5282 1.42969C11.5282 1.42969 4.31788 1.42969 2.5205 1.91177C1.52787 2.17749 0.747801 2.95756 0.482085 3.9502C1.44306e-07 5.74757 0 9.49986 0 9.49986C0 9.49986 1.44306e-07 13.2522 0.482085 15.0496C0.747801 16.0422 1.52787 16.8223 2.5205 17.0879C4.31788 17.57 11.5282 17.57 11.5282 17.57C11.5282 17.57 18.7387 17.57 20.536 17.0879C21.5286 16.8223 22.3088 16.0422 22.5745 15.0496C23.0566 13.2522 23.0566 9.49986 23.0566 9.49986C23.0566 9.49986 23.0546 5.74757 22.5745 3.9502Z" fill="#2D2D2D"/>
<path d="M9.21875 12.9592L15.2088 9.5011L9.21875 6.04297V12.9592Z" fill="white"/>
</g>
<defs>
<clipPath id="clip0_1321_1745">
<rect width="23" height="19" fill="white"/>
</clipPath>
</defs>
</svg>
